<?xml version="1.0" encoding="UTF-8"?>
<svg id="Layer_1" xmlns="http://www.w3.org/2000/svg" version="1.1" viewBox="0 0 1080 1080">
  <!-- Generator: Adobe Illustrator 30.3.0, SVG Export Plug-In . SVG Version: 2.1.3 Build 182)  -->
  <defs>
    <style>
      .st0 {
        fill: #002c3e;
      }

      .st1 {
        isolation: isolate;
      }
    </style>
  </defs>
  <g class="st1">
    <g id="Layer_11" data-name="Layer_1">
      <g>
        <path class="st0" d="M735.3,357.6h-96.3l-4.9-27c-2.6-14.3-15-24.6-29.5-24.6h-126.9c-14.5,0-26.9,10.4-29.5,24.6l-4.9,27h-96.3c-24.6,0-44.6,20-44.6,44.6v211.4c0,24.7,20,44.6,44.6,44.6h388.4c24.7,0,44.6-20,44.6-44.6v-211.4c0-24.6-20-44.6-44.6-44.6h0ZM541.1,611.9c-57.3,0-104-46.7-104-104s46.6-104,104-104,104,46.6,104,104-46.7,104-104,104Z"/>
        <path class="st0" d="M541.1,443.1c-35.7,0-64.8,29.1-64.8,64.8s29.1,64.8,64.8,64.8,64.8-29.1,64.8-64.8-29.1-64.8-64.8-64.8Z"/>
      </g>
    </g>
  </g>
</svg>