<?xml version="1.0" encoding="UTF-8"?>
<svg id="Layer_1" xmlns="http://www.w3.org/2000/svg" version="1.1" viewBox="0 0 1080 1080">
  <!-- Generator: Adobe Illustrator 30.3.0, SVG Export Plug-In . SVG Version: 2.1.3 Build 182)  -->
  <defs>
    <style>
      .st0 {
        fill: #002c3e;
      }

      .st1 {
        fill: #f5f5f5;
      }
    </style>
  </defs>
  <circle class="st0" cx="543.6" cy="544.6" r="430.9"/>
  <path class="st1" d="M768.2,388.5c-10.3-5-22.7-.7-27.8,9.6l-175.3,360.2c-27.7,57-96.6,80.7-153.6,53-57-27.7-80.7-96.6-53-153.6l22.7-46.7c.7-1,1.4-2.1,2-3.2l148-304.1c17-35,59.3-49.6,94.3-32.5,35,17,49.6,59.3,32.5,94.3l-17.9,36.7-76.9,157.9-78.4,161.1c-6.1,12.5-21.2,17.7-33.6,11.6s-17.7-21.2-11.6-33.6l175.9-361.4c5.1-10.5.7-23.1-9.7-28.2-10.5-5.1-23.1-.7-28.2,9.7l-175.9,361.4c-16.3,33.4-2.3,73.8,31.1,90.1,33.4,16.3,73.8,2.3,90.1-31.1l78.4-161.1,76.9-157.9,17.9-36.7c27.2-55.9,3.9-123.5-52-150.7-55.9-27.2-123.5-3.9-150.7,52l-148,304.1c-.6,1.2-1,2.4-1.3,3.5l-22.7,46.7c-37.7,77.5-5.4,171.3,72.2,209.1,77.5,37.7,171.3,5.4,209.1-72.2l175.3-360.2c5-10.3.7-22.7-9.6-27.8h0Z"/>
</svg>