<?xml version="1.0" encoding="UTF-8"?>
<svg id="Layer_1" data-name="Layer 1" xmlns="http://www.w3.org/2000/svg" viewBox="0 0 1080 1080">
  <defs>
    <style>
      .cls-1 {
        fill: #5a6c7d;
      }
    </style>
  </defs>
  <path class="cls-1" d="M720.98,340.9c-.05-.05-.11-.09-.16-.14-.04-.03-.08-.07-.12-.1-43.52-38.07-99.25-59.55-156.98-60.48,0,0,0,0,0,0s0,0,0,0l-1.09-.06c-.95-.07-1.9-.13-2.88-.13s-1.92.06-2.88.13l-1.1.06s0,0,0,0c0,0,0,0-.01,0-57.73.93-113.47,22.42-156.99,60.49-.03.02-.06.05-.09.07-.06.05-.12.1-.18.15-53.12,46.6-83.58,113.64-83.58,183.93s26.56,129.33,74.8,175.95c44.76,43.27,103.68,67.65,165.93,68.68.01,0,.02,0,.04,0l1.1.07c.98.07,1.96.13,2.96.13s1.98-.07,2.96-.13l1.09-.07s.02,0,.04,0c62.24-1.03,121.17-25.41,165.94-68.68,48.23-46.61,74.8-109.1,74.8-175.95,0-70.3-30.47-137.34-83.58-183.93ZM525.66,306.97c-21.57,19.43-40.2,42.02-55.1,66.68-15.74-6.46-30.59-14.56-44.41-24.14,29.19-22.26,63.44-36.87,99.52-42.53ZM407.19,365.72c15.96,11.66,33.27,21.4,51.64,29.17-18.15,36.69-28.46,76.97-30.16,117.88h-89.3c3.07-55.66,27.32-108.23,67.81-147.05ZM339.38,536.9h89.36c1.49,36.46,9.75,71.87,24.64,105.59-19.48,8.8-37.73,19.92-54.47,33.24-35.93-38.16-56.74-86.74-59.53-138.83ZM416.63,692.57c14.65-11.32,30.51-20.86,47.41-28.42,15.98,29.51,36.88,56.16,61.72,78.59-40.28-6.22-77.94-23.5-109.14-50.17ZM547.67,729.75c-24.52-20.91-45.25-46.12-60.95-74.35,19.88-6.56,40.29-10.43,60.95-11.51v85.85ZM547.67,619.7c-24.39,1.15-48.47,5.81-71.84,13.87-13.75-30.89-21.46-63.3-22.95-96.67h94.79v82.8ZM547.67,512.76h-94.75c1.72-38.04,11.56-75.43,28.77-109.4,21.66,6.9,43.77,10.92,65.98,11.99v97.41ZM547.67,391.16c-18.1-.96-36.14-4.11-53.89-9.37,14.59-23.13,32.9-44.07,53.89-61.92v71.3ZM780.09,512.76h-89.3c-1.7-40.91-12.01-81.19-30.16-117.88,18.37-7.77,35.68-17.51,51.64-29.17,40.49,38.82,64.74,91.39,67.81,147.05ZM693.33,349.51c-13.82,9.58-28.67,17.68-44.41,24.14-14.89-24.65-33.53-47.24-55.1-66.67,36.08,5.66,70.32,20.28,99.51,42.53ZM571.81,319.86c20.99,17.86,39.31,38.8,53.89,61.92-17.75,5.26-35.78,8.41-53.89,9.38v-71.3ZM571.81,415.35c22.21-1.07,44.32-5.08,65.97-11.99,17.2,33.97,27.04,71.36,28.77,109.4h-94.74v-97.41ZM571.81,536.9h94.78c-1.49,33.37-9.2,65.78-22.95,96.67-23.37-8.06-47.44-12.72-71.83-13.87v-82.8ZM571.81,729.74v-85.85c20.66,1.08,41.06,4.95,60.94,11.51-15.7,28.22-36.42,53.43-60.94,74.34ZM593.71,742.74c24.84-22.42,45.74-49.08,61.72-78.59,16.9,7.56,32.76,17.1,47.42,28.42-31.2,26.66-68.86,43.94-109.14,50.16ZM720.56,675.73c-16.75-13.33-35.01-24.45-54.48-33.24,14.89-33.73,23.15-69.14,24.64-105.59h89.36c-2.79,52.1-23.6,100.68-59.52,138.83Z"/>
</svg>