<?xml version="1.0" encoding="UTF-8"?>
<svg id="Layer_1" data-name="Layer 1" xmlns="http://www.w3.org/2000/svg" viewBox="0 0 1080 1080">
  <defs>
    <style>
      .cls-1 {
        fill: #5a6c7d;
      }

      .cls-2 {
        fill: #f5f5f5;
      }
    </style>
  </defs>
  <path class="cls-1" d="M548.32,278.3c-92.24,0-167.3,75.05-167.3,167.31,0,50.36,34.38,138.25,63.82,198.2,19.71,40.15,69.34,133.52,104.44,133.52,7.36,0,20.17-4.34,46.45-41.84,16.44-23.47,35.34-56.01,53.21-91.61,32.22-64.18,66.66-149.97,66.66-198.27,0-92.26-75.05-167.31-167.29-167.31Z"/>
  <path class="cls-2" d="M548.32,332.23c-62.29,0-112.95,50.67-112.95,112.94s50.66,112.95,112.95,112.95,112.94-50.67,112.94-112.95-50.67-112.94-112.94-112.94Z"/>
</svg>