<?xml version="1.0" encoding="UTF-8"?>
<svg id="Layer_1" xmlns="http://www.w3.org/2000/svg" version="1.1" viewBox="0 0 1080 1080">
  <!-- Generator: Adobe Illustrator 30.3.0, SVG Export Plug-In . SVG Version: 2.1.3 Build 182)  -->
  <defs>
    <style>
      .st0 {
        fill: #5a6c7d;
      }
    </style>
  </defs>
  <path class="st0" d="M749.5,370l-103-103c-4.1-4.1-10.8-4.1-15,0l-17.8,17.8c-4.1,4.1-4.1,10.8,0,15l53.3,53.3h-218.1c-90.2,0-163.4,73.1-163.4,163.4v110.5c0,5,4.1,9.1,9.1,9.1h28c5,0,9.1-4.1,9.1-9.1v-110.5c0-64.7,52.4-117.1,117.1-117.1h220.8l-56,56c-4.1,4.1-4.1,10.8,0,15l17.8,17.8c4.1,4.1,10.8,4.1,15,0l103-103c4.1-4.1,4.1-10.8,0-15Z"/>
  <path class="st0" d="M398.7,753.5l103,103c4.1,4.1,10.8,4.1,15,0l17.8-17.8c4.1-4.1,4.1-10.8,0-15l-53.3-53.3h218.1c90.2,0,163.4-73.1,163.4-163.4v-110.5c0-5-4.1-9.1-9.1-9.1h-28c-5,0-9.1,4.1-9.1,9.1v110.5c0,64.7-52.4,117.1-117.1,117.1h-220.8l56-56c4.1-4.1,4.1-10.8,0-15l-17.8-17.8c-4.1-4.1-10.8-4.1-15,0l-103,103c-4.1,4.1-4.1,10.8,0,15Z"/>
</svg>