<svg version="1.2" xmlns="http://www.w3.org/2000/svg" viewBox="0 0 1922 1081" width="2000" height="1125">
	<defs>
		<clipPath clipPathUnits="userSpaceOnUse" id="cp1">
			<path d="m768.22-712.52c0 27.51-22.3 49.81-49.81 49.81-27.51 0-49.81-22.3-49.81-49.81 0-27.51 22.3-49.81 49.81-49.81 27.51 0 49.81 22.3 49.81 49.81z"/>
		</clipPath>
		<clipPath clipPathUnits="userSpaceOnUse" id="cp2">
			<path d="m903.54-712.52c0 27.51-22.3 49.81-49.81 49.81-27.51 0-49.8-22.3-49.8-49.81 0-27.51 22.29-49.81 49.8-49.81 27.51 0 49.81 22.3 49.81 49.81z"/>
		</clipPath>
		<clipPath clipPathUnits="userSpaceOnUse" id="cp3">
			<path d="m768.22 432.7c0 27.51-22.3 49.81-49.81 49.81-27.51 0-49.81-22.3-49.81-49.81 0-27.51 22.3-49.8 49.81-49.8 27.51 0 49.81 22.29 49.81 49.8z"/>
		</clipPath>
		<clipPath clipPathUnits="userSpaceOnUse" id="cp4">
			<path d="m903.54 432.7c0 27.51-22.3 49.81-49.81 49.81-27.51 0-49.8-22.3-49.8-49.81 0-27.51 22.29-49.8 49.8-49.8 27.51 0 49.81 22.29 49.81 49.8z"/>
		</clipPath>
	</defs>
	<style>
		.s0 { fill: #ffffff } 
		.s1 { fill: #f7f8f3 } 
		.s2 { fill: #8a99a6 } 
		.s3 { fill: #002c3e } 
		.s4 { fill: #a8b6c2 } 
		.s5 { fill: #d1d9e0 } 
		.s6 { fill: #f5f5f5 } 
		.s7 { fill: #0aa298 } 
		.s8 { fill: #0a8980 } 
		.s9 { fill: #0cb4ab } 
		.s10 { fill: #000000 } 
		.s11 { fill: #1ac7be } 
		.s12 { fill: #046a64 } 
		.s13 { fill: #067e78 } 
		.s14 { fill: #b5d43c } 
		.s15 { fill: #5a6c7d } 
	</style>
	<g id="_Artboards_">
		<path id="Artboard 1 copy 6" class="s0" d="m-2194-91.33h1920v-1080h-1920z"/>
		<path id="Artboard 1 copy 7" class="s0" d="m-2194 1081h1920v-1080h-1920z"/>
		<path id="Artboard 1" class="s0" d="m1.57-91.33h1920v-1080h-1920z"/>
		<path id="Artboard 1 copy" class="s0" d="m1.57 1074.22h1920v-1080h-1920z"/>
	</g>
	<g id="Layer 1">
		<path id="&lt;Path&gt;" class="s1" d="m-275.11 1081h-1920v-1080h1920z"/>
		<g id="&lt;Group&gt;">
			<g id="&lt;Group&gt;">
				<path id="&lt;Compound Path&gt;" class="s2" d="m-1702.93 103.45q-3.92 0-6.8-1.24-2.88-1.25-4.51-3.56-1.63-2.3-1.8-5.49h5.37q0.17 1.9 1.23 3.14 1.07 1.24 2.78 1.85 1.71 0.61 3.7 0.61 2.23 0 3.95-0.69 1.72-0.69 2.73-1.97 1.01-1.28 1.01-2.97 0-1.52-0.88-2.49-0.88-0.97-2.37-1.62-1.48-0.64-3.38-1.14l-4.08-1.12q-4.29-1.15-6.69-3.4-2.4-2.25-2.4-5.83 0-3.03 1.62-5.29 1.63-2.26 4.43-3.52 2.8-1.25 6.32-1.25 3.59 0 6.32 1.25 2.73 1.26 4.29 3.44 1.55 2.18 1.62 4.97h-5.2q-0.26-2.39-2.21-3.71-1.96-1.31-4.94-1.31-2.11 0-3.66 0.66-1.56 0.65-2.42 1.81-0.85 1.16-0.85 2.64 0 1.66 1.02 2.68 1.01 1.02 2.48 1.62 1.46 0.6 2.8 0.95l3.4 0.89q1.66 0.42 3.43 1.14 1.77 0.71 3.27 1.85 1.5 1.14 2.43 2.81 0.92 1.68 0.92 4.05 0 2.95-1.52 5.27-1.52 2.32-4.42 3.64-2.89 1.33-6.99 1.33z"/>
				<path id="&lt;Compound Path&gt;" fill-rule="evenodd" class="s2" d="m-1669.09 103.33q-4.52 0-8.1-2.14-3.57-2.15-5.62-6.17-2.05-4.02-2.05-9.6 0-5.6 2.05-9.62 2.05-4.02 5.62-6.17 3.58-2.16 8.1-2.16 4.52 0 8.07 2.16 3.55 2.15 5.61 6.17 2.05 4.02 2.05 9.62 0 5.58-2.05 9.6-2.06 4.02-5.61 6.17-3.55 2.14-8.07 2.14zm0-4.87q2.98 0 5.33-1.49 2.36-1.49 3.73-4.41 1.37-2.92 1.37-7.14 0-4.26-1.37-7.18-1.37-2.92-3.73-4.41-2.35-1.48-5.33-1.48-3 0-5.37 1.5-2.36 1.5-3.74 4.41-1.37 2.92-1.37 7.16 0 4.22 1.37 7.13 1.38 2.91 3.74 4.41 2.37 1.5 5.37 1.5z"/>
				<path id="&lt;Compound Path&gt;" class="s2" d="m-1646.85 102.86v-34.92h5.35v30.33h15.82v4.59z"/>
				<path id="&lt;Compound Path&gt;" fill-rule="evenodd" class="s2" d="m-1606.51 103.33q-4.53 0-8.1-2.14-3.57-2.15-5.62-6.17-2.06-4.02-2.06-9.6 0-5.6 2.06-9.62 2.05-4.02 5.62-6.17 3.57-2.16 8.1-2.16 4.52 0 8.07 2.16 3.55 2.15 5.6 6.17 2.05 4.02 2.05 9.62 0 5.58-2.05 9.6-2.05 4.02-5.6 6.17-3.55 2.14-8.07 2.14zm0-4.87q2.97 0 5.33-1.49 2.36-1.49 3.73-4.41 1.37-2.92 1.37-7.14 0-4.26-1.37-7.18-1.37-2.92-3.73-4.41-2.36-1.48-5.33-1.48-3 0-5.37 1.5-2.37 1.5-3.74 4.41-1.37 2.92-1.37 7.16 0 4.22 1.37 7.13 1.37 2.91 3.74 4.41 2.37 1.5 5.37 1.5z"/>
				<path id="&lt;Compound Path&gt;" fill-rule="evenodd" class="s2" d="m-1571.47 102.86v-34.92h12.86q3.73 0 6.17 1.22 2.44 1.22 3.63 3.29 1.2 2.08 1.2 4.65 0 2.18-0.8 3.67-0.8 1.49-2.14 2.39-1.35 0.9-2.97 1.33v0.35q1.76 0.07 3.42 1.11 1.67 1.04 2.76 2.93 1.09 1.89 1.09 4.58 0 2.65-1.26 4.78-1.25 2.14-3.85 3.38-2.61 1.24-6.68 1.24zm5.34-19.8h7.01q1.76 0 3.19-0.68 1.43-0.68 2.25-1.92 0.82-1.25 0.82-2.91 0-2.16-1.5-3.6-1.5-1.44-4.62-1.44h-7.15zm0 15.21h7.55q3.75 0 5.39-1.45 1.64-1.46 1.64-3.61 0-1.69-0.83-3.05-0.84-1.36-2.36-2.17-1.52-0.81-3.63-0.81h-7.76z"/>
				<path id="&lt;Compound Path&gt;" class="s2" d="m-1540.35 102.86v-26.2h4.99v4.22h0.29q0.72-2.16 2.53-3.38 1.8-1.22 4.1-1.22 0.49 0 1.12 0.04 0.64 0.03 1.06 0.1v4.93q-0.28-0.1-1.08-0.19-0.8-0.1-1.62-0.1-1.78 0-3.21 0.75-1.43 0.75-2.22 2.08-0.8 1.32-0.8 3.06v15.91z"/>
				<path id="&lt;Compound Path&gt;" fill-rule="evenodd" class="s2" d="m-1514.66 103.45q-2.48 0-4.5-0.93-2.02-0.92-3.19-2.71-1.17-1.78-1.17-4.35 0-2.23 0.86-3.66 0.85-1.43 2.32-2.27 1.46-0.85 3.25-1.27 1.8-0.42 3.65-0.63 2.32-0.28 3.77-0.46 1.45-0.18 2.15-0.59 0.69-0.41 0.69-1.32v-0.14q0-1.48-0.56-2.49-0.57-1-1.68-1.55-1.11-0.55-2.78-0.55-1.71 0-2.94 0.52-1.23 0.53-1.99 1.35-0.76 0.82-1.14 1.71l-4.85-1.26q0.89-2.35 2.55-3.78 1.67-1.43 3.83-2.08 2.15-0.66 4.45-0.66 1.59 0 3.37 0.38 1.78 0.37 3.35 1.35 1.58 0.99 2.56 2.77 0.98 1.78 0.98 4.64v17.39h-4.99v-3.58h-0.26q-0.51 1-1.52 1.96-1.01 0.97-2.54 1.59-1.54 0.62-3.67 0.62zm1.15-4.15q2.11 0 3.61-0.82 1.5-0.82 2.29-2.18 0.8-1.36 0.8-2.88v-3.36q-0.28 0.29-1.07 0.51-0.78 0.22-1.79 0.4-1.01 0.17-1.94 0.29-0.94 0.12-1.55 0.19-1.45 0.18-2.66 0.63-1.21 0.45-1.92 1.27-0.72 0.82-0.72 2.18 0 1.24 0.65 2.08 0.64 0.85 1.74 1.27 1.1 0.42 2.56 0.42z"/>
				<path id="&lt;Compound Path&gt;" class="s2" d="m-1489.58 87.35v15.51h-5.16v-26.2h4.92l0.05 6.42h-0.54q1.15-3.52 3.33-5.13 2.18-1.62 5.27-1.62 2.67 0 4.67 1.13 1.99 1.12 3.11 3.31 1.13 2.19 1.13 5.45v16.64h-5.16v-16.01q0-2.83-1.47-4.43-1.48-1.59-4.06-1.59-1.73 0-3.12 0.76-1.38 0.76-2.18 2.22-0.79 1.45-0.79 3.54z"/>
				<path id="&lt;Compound Path&gt;" fill-rule="evenodd" class="s2" d="m-1456.11 103.38q-3.19 0-5.68-1.63-2.48-1.63-3.89-4.67-1.4-3.03-1.4-7.25 0-4.27 1.43-7.29 1.43-3.02 3.91-4.62 2.49-1.59 5.63-1.59 2.43 0 3.92 0.81 1.49 0.81 2.33 1.89 0.85 1.07 1.29 1.89h0.28v-12.98h5.16v34.92h-5.01v-4.1h-0.43q-0.44 0.84-1.31 1.92-0.87 1.08-2.37 1.89-1.5 0.81-3.86 0.81zm1.12-4.39q2.2 0 3.72-1.17 1.51-1.17 2.29-3.24 0.79-2.08 0.79-4.8 0-2.74-0.78-4.77-0.77-2.02-2.28-3.16-1.51-1.14-3.74-1.14-2.27 0-3.78 1.2-1.52 1.19-2.28 3.24-0.76 2.06-0.76 4.63 0 2.6 0.77 4.69 0.78 2.09 2.3 3.31 1.52 1.21 3.75 1.21z"/>
				<path id="&lt;Compound Path&gt;" class="s2" d="m-1417.65 67.94v34.92h-5.35v-34.92z"/>
				<path id="&lt;Compound Path&gt;" fill-rule="evenodd" class="s2" d="m-1400.57 103.38q-3.18 0-5.67-1.63-2.48-1.63-3.89-4.67-1.41-3.03-1.41-7.25 0-4.27 1.43-7.29 1.43-3.02 3.92-4.62 2.48-1.59 5.62-1.59 2.44 0 3.93 0.81 1.49 0.81 2.33 1.89 0.84 1.07 1.29 1.89h0.28v-12.98h5.16v34.92h-5.02v-4.1h-0.42q-0.45 0.84-1.31 1.92-0.87 1.08-2.37 1.89-1.5 0.81-3.87 0.81zm1.13-4.39q2.2 0 3.71-1.17 1.51-1.17 2.3-3.24 0.79-2.08 0.79-4.8 0-2.74-0.78-4.77-0.77-2.02-2.28-3.16-1.52-1.14-3.74-1.14-2.28 0-3.79 1.2-1.51 1.19-2.27 3.24-0.76 2.06-0.76 4.63 0 2.6 0.77 4.69 0.77 2.09 2.3 3.31 1.52 1.21 3.75 1.21z"/>
				<path id="&lt;Compound Path&gt;" class="s2" d="m-1369.35 103.4q-3.87 0-6.68-1.66-2.81-1.67-4.32-4.69-1.51-3.02-1.51-7.1 0-4.03 1.48-7.1 1.49-3.07 4.21-4.8 2.72-1.72 6.38-1.72 2.25 0 4.33 0.74 2.09 0.74 3.75 2.31 1.67 1.57 2.64 4.06 0.97 2.5 0.97 6.06v1.83h-20.88v-3.84h18.23l-2.41 1.26q0-2.41-0.75-4.25-0.75-1.84-2.22-2.87-1.46-1.03-3.66-1.03-2.18 0-3.73 1.05-1.55 1.06-2.36 2.78-0.8 1.72-0.8 3.76v2.62q0 2.7 0.92 4.56 0.93 1.87 2.59 2.82 1.67 0.94 3.87 0.94 1.45 0 2.62-0.41 1.18-0.41 2.03-1.24 0.86-0.83 1.3-2.05l4.85 1.15q-0.63 2.02-2.12 3.56-1.49 1.55-3.7 2.41-2.22 0.85-5.03 0.85z"/>
				<path id="&lt;Compound Path&gt;" class="s2" d="m-1347.29 87.35v15.51h-5.16v-26.2h4.92l0.05 6.42h-0.54q1.15-3.52 3.33-5.13 2.18-1.62 5.27-1.62 2.67 0 4.67 1.13 1.99 1.12 3.11 3.31 1.13 2.19 1.13 5.45v16.64h-5.16v-16.01q0-2.83-1.47-4.43-1.48-1.59-4.06-1.59-1.73 0-3.12 0.76-1.38 0.76-2.18 2.22-0.79 1.45-0.79 3.54z"/>
				<path id="&lt;Compound Path&gt;" class="s2" d="m-1312.37 76.66v4.19h-14.2v-4.19zm-10.39-6.24h5.16v25.36q0 1.57 0.67 2.31 0.66 0.74 2.19 0.74 0.4 0 1.05-0.09 0.66-0.1 1.13-0.19l0.91 4.12q-0.82 0.29-1.76 0.41-0.93 0.13-1.85 0.13-3.56 0-5.53-1.84-1.97-1.84-1.97-5.16z"/>
				<path id="&lt;Compound Path&gt;" class="s2" d="m-1304.64 72.65q-1.33 0-2.28-0.9-0.95-0.9-0.95-2.15 0-1.29 0.95-2.18 0.95-0.89 2.28-0.89 1.34 0 2.3 0.89 0.96 0.89 0.96 2.18 0 1.27-0.96 2.16-0.96 0.89-2.3 0.89zm-2.6 30.21v-26.2h5.16v26.2z"/>
				<path id="&lt;Compound Path&gt;" class="s2" d="m-1283.94 76.66v4.19h-14.2v-4.19zm-10.39-6.24h5.16v25.36q0 1.57 0.67 2.31 0.66 0.74 2.19 0.74 0.4 0 1.05-0.09 0.66-0.1 1.13-0.19l0.91 4.12q-0.82 0.29-1.76 0.41-0.93 0.13-1.85 0.13-3.56 0-5.53-1.84-1.97-1.84-1.97-5.16z"/>
				<path id="&lt;Compound Path&gt;" class="s2" d="m-1278.18 112.28l1.27-4.19 0.59 0.14q1.33 0.35 2.4 0.19 1.06-0.17 1.85-1 0.78-0.83 1.25-2.52l0.57-1.92-9.97-26.32h5.58l5.18 14.88q0.87 2.49 1.44 4.95 0.58 2.46 1.26 4.89h-1.6q0.68-2.43 1.31-4.91 0.62-2.47 1.48-4.93l5.28-14.88h5.53l-11.39 29.83q-0.8 2.11-1.96 3.52-1.16 1.41-2.75 2.12-1.6 0.72-3.71 0.72-1.22 0-2.18-0.18-0.96-0.18-1.43-0.39z"/>
				<path id="&lt;Compound Path&gt;" class="s2" d="m-1231.68 67.94v34.92h-5.34v-34.92zm6 34.92h-8.63v-4.69h8.35q3.96 0 6.58-1.47 2.63-1.48 3.94-4.35 1.31-2.87 1.31-7 0-4.1-1.3-6.93-1.3-2.84-3.86-4.32-2.57-1.47-6.39-1.47h-8.81v-4.69h9.16q5.16 0 8.84 2.09 3.68 2.08 5.65 5.98 1.96 3.91 1.96 9.34 0 5.46-1.98 9.38-1.98 3.91-5.74 6.02-3.76 2.11-9.08 2.11z"/>
				<path id="&lt;Compound Path&gt;" class="s2" d="m-1191.48 103.4q-3.87 0-6.68-1.66-2.81-1.67-4.33-4.69-1.51-3.02-1.51-7.1 0-4.03 1.49-7.1 1.49-3.07 4.21-4.8 2.72-1.72 6.37-1.72 2.25 0 4.34 0.74 2.08 0.74 3.75 2.31 1.66 1.57 2.64 4.06 0.97 2.5 0.97 6.06v1.83h-20.88v-3.84h18.23l-2.41 1.26q0-2.41-0.75-4.25-0.75-1.84-2.22-2.87-1.46-1.03-3.67-1.03-2.18 0-3.72 1.05-1.55 1.06-2.36 2.78-0.81 1.72-0.81 3.76v2.62q0 2.7 0.93 4.56 0.92 1.87 2.59 2.82 1.66 0.94 3.87 0.94 1.45 0 2.62-0.41 1.17-0.41 2.03-1.24 0.85-0.83 1.3-2.05l4.85 1.15q-0.63 2.02-2.12 3.56-1.49 1.55-3.7 2.41-2.22 0.85-5.03 0.85z"/>
				<path id="&lt;Compound Path&gt;" class="s2" d="m-1165.18 103.4q-2.84 0-5.06-0.82-2.21-0.82-3.63-2.43-1.42-1.6-1.89-3.92l4.86-1.01q0.54 2.04 2.01 3.02 1.48 0.99 3.75 0.99 2.49 0 3.96-1.04 1.48-1.05 1.48-2.5 0-1.27-0.9-2.09-0.91-0.82-2.78-1.22l-4.41-1q-3.65-0.82-5.43-2.63-1.79-1.8-1.79-4.62 0-2.34 1.32-4.1 1.31-1.75 3.58-2.73 2.28-0.97 5.25-0.97 2.84 0 4.85 0.82 2.02 0.82 3.27 2.3 1.26 1.47 1.8 3.42l-4.62 1.01q-0.49-1.39-1.71-2.43-1.22-1.04-3.54-1.04-2.13 0-3.56 0.96-1.43 0.96-1.43 2.44 0 1.31 0.95 2.12 0.95 0.81 3.1 1.3l4.22 0.94q3.63 0.82 5.39 2.57 1.76 1.76 1.76 4.5 0 2.39-1.37 4.23-1.37 1.84-3.8 2.89-2.42 1.04-5.63 1.04z"/>
				<path id="&lt;Compound Path&gt;" class="s2" d="m-1146.13 72.65q-1.34 0-2.29-0.9-0.94-0.9-0.94-2.15 0-1.29 0.94-2.18 0.95-0.89 2.29-0.89 1.34 0 2.3 0.89 0.96 0.89 0.96 2.18 0 1.27-0.96 2.16-0.96 0.89-2.3 0.89zm-2.6 30.21v-26.2h5.15v26.2z"/>
				<path id="&lt;Compound Path&gt;" fill-rule="evenodd" class="s2" d="m-1125.69 113.22q-3.03 0-5.25-0.77-2.23-0.78-3.67-2.07-1.44-1.28-2.19-2.85l4.31-2.04q0.47 0.75 1.25 1.58 0.79 0.83 2.13 1.42 1.33 0.58 3.42 0.58 3 0 4.86-1.42 1.86-1.41 1.86-4.44v-5.11h-0.44q-0.47 0.87-1.3 1.88-0.83 1.01-2.32 1.74-1.49 0.74-3.88 0.74-3.1 0-5.57-1.45-2.47-1.45-3.92-4.31-1.46-2.86-1.46-7.03 0-4.18 1.44-7.16 1.45-2.99 3.94-4.59 2.5-1.59 5.64-1.59 2.41 0 3.92 0.8 1.52 0.79 2.37 1.88 0.86 1.09 1.3 1.91h0.38v-4.26h5.04v26.58q0 3.44-1.56 5.66-1.56 2.21-4.24 3.27-2.69 1.05-6.06 1.05zm-0.03-15.05q2.21 0 3.72-1.02 1.51-1.02 2.28-2.95 0.78-1.93 0.78-4.6 0-2.65-0.78-4.64-0.77-2-2.28-3.12-1.51-1.13-3.72-1.13-2.27 0-3.79 1.19-1.53 1.18-2.3 3.18-0.77 2.01-0.77 4.52 0 2.55 0.77 4.48 0.77 1.94 2.31 3.02 1.53 1.07 3.78 1.07z"/>
				<path id="&lt;Compound Path&gt;" class="s2" d="m-1101.74 87.35v15.51h-5.16v-26.2h4.93l0.04 6.42h-0.54q1.15-3.52 3.33-5.13 2.18-1.62 5.28-1.62 2.67 0 4.66 1.13 1.99 1.12 3.12 3.31 1.12 2.19 1.12 5.45v16.64h-5.15v-16.01q0-2.83-1.48-4.43-1.48-1.59-4.06-1.59-1.73 0-3.11 0.76-1.39 0.76-2.18 2.22-0.8 1.45-0.8 3.54z"/>
				<path id="&lt;Compound Path&gt;" class="s2" d="m-1058.03 102.86l-9.47-34.92h5.63l5.04 20.02q0.47 1.85 0.86 3.84 0.4 1.99 0.79 4.03 0.39 2.04 0.74 4.08h-0.8q0.38-2.04 0.77-4.08 0.4-2.04 0.82-4.03 0.43-1.99 0.92-3.84l5.18-20.02h5.86l5.13 20.02q0.49 1.85 0.91 3.84 0.43 1.99 0.84 4.03 0.41 2.04 0.78 4.08h-0.84q0.37-2.04 0.75-4.08 0.37-2.04 0.81-4.03 0.43-1.99 0.85-3.84l5.04-20.02h5.67l-9.51 34.92h-6.17l-5.55-20.69q-0.63-2.44-1.17-5.3-0.54-2.86-1.11-6.28h1.22q-0.58 3.28-1.06 6.07-0.48 2.79-1.21 5.51l-5.53 20.69z"/>
				<path id="&lt;Compound Path&gt;" class="s2" d="m-1014.48 72.65q-1.34 0-2.29-0.9-0.95-0.9-0.95-2.15 0-1.29 0.95-2.18 0.95-0.89 2.29-0.89 1.33 0 2.3 0.89 0.96 0.89 0.96 2.18 0 1.27-0.96 2.16-0.97 0.89-2.3 0.89zm-2.6 30.21v-26.2h5.15v26.2z"/>
				<path id="&lt;Compound Path&gt;" class="s2" d="m-993.79 76.66v4.19h-14.2v-4.19zm-10.38-6.24h5.15v25.36q0 1.57 0.67 2.31 0.67 0.74 2.19 0.74 0.4 0 1.06-0.09 0.65-0.1 1.12-0.19l0.92 4.12q-0.82 0.29-1.76 0.41-0.94 0.13-1.85 0.13-3.56 0-5.53-1.84-1.97-1.84-1.97-5.16z"/>
				<path id="&lt;Compound Path&gt;" class="s2" d="m-983.45 87.35v15.51h-5.16v-34.92h5.11v15.14h-0.68q1.15-3.52 3.33-5.13 2.18-1.62 5.27-1.62 2.68 0 4.68 1.13 2 1.12 3.12 3.31 1.11 2.19 1.11 5.45v16.64h-5.16v-16.01q0-2.83-1.47-4.43-1.48-1.59-4.06-1.59-1.73 0-3.11 0.76-1.39 0.76-2.18 2.22-0.8 1.45-0.8 3.54z"/>
				<path id="&lt;Compound Path&gt;" fill-rule="evenodd" class="s2" d="m-948.72 103.4q-3.68 0-6.43-1.69-2.75-1.68-4.28-4.73-1.52-3.05-1.52-7.08 0-4.08 1.52-7.14 1.53-3.05 4.28-4.74 2.75-1.69 6.43-1.69 3.71 0 6.46 1.69 2.75 1.69 4.28 4.74 1.52 3.06 1.52 7.14 0 4.03-1.52 7.08-1.53 3.05-4.28 4.73-2.75 1.69-6.46 1.69zm0-4.36q2.39 0 3.95-1.25 1.56-1.26 2.32-3.33 0.77-2.08 0.77-4.56 0-2.51-0.77-4.6-0.76-2.1-2.32-3.36-1.56-1.25-3.95-1.25-2.36 0-3.91 1.25-1.55 1.26-2.31 3.34-0.76 2.09-0.76 4.62 0 2.48 0.76 4.56 0.76 2.07 2.31 3.33 1.55 1.25 3.91 1.25z"/>
				<path id="&lt;Compound Path&gt;" class="s2" d="m-921.81 103.19q-2.67 0-4.69-1.13-2.01-1.12-3.13-3.32-1.11-2.21-1.11-5.44v-16.64h5.16v16.01q0 2.83 1.49 4.43 1.48 1.59 4.04 1.59 1.76 0 3.13-0.76 1.37-0.76 2.16-2.23 0.8-1.46 0.8-3.53v-15.51h5.16v26.2h-4.92l-0.03-6.42h0.49q-1.14 3.56-3.35 5.16-2.2 1.59-5.2 1.59z"/>
				<path id="&lt;Compound Path&gt;" class="s2" d="m-890.66 76.66v4.19h-14.2v-4.19zm-10.39-6.24h5.16v25.36q0 1.57 0.67 2.31 0.66 0.74 2.19 0.74 0.4 0 1.05-0.09 0.66-0.1 1.13-0.19l0.91 4.12q-0.82 0.29-1.76 0.41-0.93 0.13-1.85 0.13-3.56 0-5.53-1.84-1.97-1.84-1.97-5.16z"/>
				<path id="&lt;Compound Path&gt;" class="s2" d="m-866.99 67.94v34.92h-5.34v-34.92z"/>
				<path id="&lt;Compound Path&gt;" class="s2" d="m-848.64 103.4q-3.7 0-6.44-1.69-2.75-1.68-4.27-4.73-1.52-3.05-1.52-7.08 0-4.08 1.52-7.14 1.52-3.05 4.27-4.74 2.74-1.69 6.44-1.69 2.04 0 3.82 0.53 1.78 0.52 3.23 1.52 1.44 1 2.43 2.44 1 1.44 1.49 3.24l-4.9 1.18q-0.26-1.01-0.79-1.84-0.54-0.84-1.31-1.44-0.76-0.61-1.75-0.94-1-0.33-2.19-0.33-2.37 0-3.93 1.25-1.56 1.26-2.32 3.34-0.76 2.09-0.76 4.62 0 2.51 0.76 4.58 0.76 2.08 2.32 3.32 1.56 1.24 3.93 1.24 1.21 0 2.22-0.34 1.01-0.34 1.81-0.96 0.79-0.62 1.33-1.5 0.54-0.88 0.78-1.93l4.87 1.17q-0.47 1.85-1.48 3.32-1 1.46-2.44 2.49-1.45 1.03-3.25 1.57-1.81 0.54-3.87 0.54z"/>
				<path id="&lt;Compound Path&gt;" fill-rule="evenodd" class="s2" d="m-820.93 103.4q-3.68 0-6.44-1.69-2.75-1.68-4.28-4.73-1.52-3.05-1.52-7.08 0-4.08 1.52-7.14 1.53-3.05 4.28-4.74 2.76-1.69 6.44-1.69 3.7 0 6.45 1.69 2.76 1.69 4.28 4.74 1.52 3.06 1.52 7.14 0 4.03-1.52 7.08-1.52 3.05-4.28 4.73-2.75 1.69-6.45 1.69zm0-4.36q2.39 0 3.94-1.25 1.56-1.26 2.32-3.33 0.77-2.08 0.77-4.56 0-2.51-0.77-4.6-0.76-2.1-2.32-3.36-1.55-1.25-3.94-1.25-2.37 0-3.92 1.25-1.55 1.26-2.31 3.34-0.76 2.09-0.76 4.62 0 2.48 0.76 4.56 0.76 2.07 2.31 3.33 1.55 1.25 3.92 1.25z"/>
				<path id="&lt;Compound Path&gt;" class="s2" d="m-797.8 87.35v15.51h-5.16v-26.2h4.92l0.05 6.42h-0.54q1.15-3.52 3.33-5.13 2.18-1.62 5.27-1.62 2.67 0 4.67 1.13 1.99 1.12 3.11 3.31 1.13 2.19 1.13 5.45v16.64h-5.16v-16.01q0-2.83-1.47-4.43-1.48-1.59-4.06-1.59-1.73 0-3.12 0.76-1.38 0.76-2.18 2.22-0.79 1.45-0.79 3.54z"/>
				<path id="&lt;Compound Path&gt;" class="s2" d="m-764.68 103.4q-2.84 0-5.06-0.82-2.21-0.82-3.63-2.43-1.42-1.6-1.89-3.92l4.86-1.01q0.54 2.04 2.01 3.02 1.48 0.99 3.75 0.99 2.49 0 3.96-1.04 1.48-1.05 1.48-2.5 0-1.27-0.9-2.09-0.91-0.82-2.78-1.22l-4.41-1q-3.65-0.82-5.43-2.63-1.79-1.8-1.79-4.62 0-2.34 1.32-4.1 1.31-1.75 3.58-2.73 2.28-0.97 5.25-0.97 2.84 0 4.85 0.82 2.02 0.82 3.27 2.3 1.26 1.47 1.8 3.42l-4.62 1.01q-0.49-1.39-1.71-2.43-1.22-1.04-3.54-1.04-2.13 0-3.56 0.96-1.43 0.96-1.43 2.44 0 1.31 0.95 2.12 0.95 0.81 3.1 1.3l4.22 0.94q3.63 0.82 5.39 2.57 1.76 1.76 1.76 4.5 0 2.39-1.37 4.23-1.37 1.84-3.8 2.89-2.42 1.04-5.63 1.04z"/>
			</g>
		</g>
		<path id="&lt;Path&gt;" class="s3" d="m1921.55-91.33h-1920v-1080h1920z"/>
		<g id="&lt;Group&gt;">
			<path id="&lt;Compound Path&gt;" class="s4" d="m658.62-1068.88q-3.91 0-6.8-1.24-2.88-1.24-4.51-3.55-1.63-2.31-1.79-5.5h5.37q0.16 1.9 1.23 3.14 1.06 1.24 2.77 1.85 1.72 0.61 3.71 0.61 2.22 0 3.95-0.69 1.72-0.69 2.73-1.97 1.01-1.27 1.01-2.96 0-1.53-0.88-2.5-0.88-0.97-2.37-1.62-1.49-0.64-3.39-1.13l-4.08-1.13q-4.28-1.15-6.69-3.4-2.4-2.25-2.4-5.83 0-3.02 1.63-5.29 1.63-2.26 4.43-3.51 2.8-1.26 6.32-1.26 3.58 0 6.31 1.26 2.73 1.25 4.29 3.43 1.56 2.18 1.63 4.97h-5.2q-0.26-2.39-2.22-3.7-1.95-1.32-4.93-1.32-2.11 0-3.67 0.66-1.56 0.66-2.41 1.82-0.86 1.16-0.86 2.63 0 1.67 1.02 2.69 1.02 1.02 2.48 1.61 1.47 0.6 2.81 0.95l3.39 0.89q1.67 0.43 3.44 1.14 1.77 0.72 3.27 1.85 1.5 1.14 2.42 2.82 0.93 1.67 0.93 4.04 0 2.95-1.52 5.27-1.53 2.32-4.42 3.65-2.9 1.32-7 1.32z"/>
			<path id="&lt;Compound Path&gt;" fill-rule="evenodd" class="s4" d="m692.47-1069q-4.53 0-8.1-2.14-3.58-2.15-5.63-6.17-2.05-4.01-2.05-9.59 0-5.6 2.05-9.62 2.05-4.02 5.63-6.18 3.57-2.16 8.1-2.16 4.52 0 8.07 2.16 3.55 2.16 5.6 6.18 2.05 4.02 2.05 9.62 0 5.58-2.05 9.59-2.05 4.02-5.6 6.17-3.55 2.14-8.07 2.14zm0-4.87q2.97 0 5.33-1.49 2.35-1.49 3.72-4.41 1.37-2.91 1.37-7.13 0-4.27-1.37-7.19-1.37-2.91-3.72-4.4-2.36-1.49-5.33-1.49-3 0-5.37 1.5-2.37 1.5-3.74 4.42-1.37 2.92-1.37 7.16 0 4.22 1.37 7.12 1.37 2.91 3.74 4.41 2.37 1.5 5.37 1.5z"/>
			<path id="&lt;Compound Path&gt;" class="s4" d="m714.71-1069.47v-34.92h5.34v30.33h15.82v4.59z"/>
			<path id="&lt;Compound Path&gt;" fill-rule="evenodd" class="s4" d="m755.04-1069q-4.52 0-8.09-2.14-3.58-2.15-5.63-6.17-2.05-4.01-2.05-9.59 0-5.6 2.05-9.62 2.05-4.02 5.63-6.18 3.57-2.16 8.09-2.16 4.53 0 8.08 2.16 3.55 2.16 5.6 6.18 2.05 4.02 2.05 9.62 0 5.58-2.05 9.59-2.05 4.02-5.6 6.17-3.55 2.14-8.08 2.14zm0-4.87q2.98 0 5.34-1.49 2.35-1.49 3.72-4.41 1.37-2.91 1.37-7.13 0-4.27-1.37-7.19-1.37-2.91-3.72-4.4-2.36-1.49-5.34-1.49-3 0-5.36 1.5-2.37 1.5-3.74 4.42-1.37 2.92-1.37 7.16 0 4.22 1.37 7.12 1.37 2.91 3.74 4.41 2.36 1.5 5.36 1.5z"/>
			<path id="&lt;Compound Path&gt;" fill-rule="evenodd" class="s4" d="m790.08-1069.47v-34.92h12.87q3.73 0 6.16 1.22 2.44 1.22 3.64 3.29 1.19 2.08 1.19 4.66 0 2.18-0.8 3.66-0.79 1.49-2.14 2.4-1.35 0.9-2.96 1.32v0.35q1.75 0.07 3.42 1.11 1.66 1.05 2.75 2.93 1.09 1.89 1.09 4.59 0 2.64-1.25 4.78-1.26 2.13-3.86 3.37-2.6 1.24-6.68 1.24zm5.35-19.8h7q1.76 0 3.19-0.68 1.43-0.68 2.25-1.92 0.82-1.24 0.82-2.91 0-2.15-1.5-3.6-1.5-1.44-4.62-1.44h-7.14zm0 15.21h7.54q3.75 0 5.39-1.45 1.64-1.45 1.64-3.61 0-1.69-0.83-3.05-0.83-1.35-2.35-2.16-1.53-0.81-3.64-0.81h-7.75z"/>
			<path id="&lt;Compound Path&gt;" class="s4" d="m821.21-1069.47v-26.2h4.99v4.22h0.28q0.73-2.16 2.53-3.37 1.81-1.22 4.1-1.22 0.5 0 1.13 0.03 0.63 0.04 1.05 0.11v4.92q-0.28-0.09-1.07-0.19-0.8-0.09-1.62-0.09-1.78 0-3.21 0.75-1.43 0.75-2.23 2.07-0.8 1.33-0.8 3.06v15.91z"/>
			<path id="&lt;Compound Path&gt;" fill-rule="evenodd" class="s4" d="m846.89-1068.88q-2.48 0-4.5-0.93-2.01-0.92-3.18-2.7-1.17-1.78-1.17-4.36 0-2.23 0.85-3.66 0.86-1.43 2.32-2.27 1.47-0.84 3.26-1.27 1.79-0.42 3.64-0.63 2.32-0.28 3.78-0.46 1.45-0.17 2.14-0.58 0.69-0.41 0.69-1.33v-0.14q0-1.47-0.56-2.48-0.56-1.01-1.68-1.56-1.11-0.55-2.77-0.55-1.71 0-2.94 0.53-1.23 0.52-2 1.34-0.76 0.82-1.13 1.71l-4.85-1.26q0.89-2.34 2.55-3.77 1.66-1.43 3.82-2.09 2.16-0.66 4.45-0.66 1.6 0 3.38 0.38 1.78 0.37 3.35 1.36 1.57 0.98 2.55 2.76 0.99 1.78 0.99 4.64v17.39h-4.99v-3.58h-0.26q-0.52 1.01-1.52 1.97-1.01 0.96-2.55 1.58-1.53 0.62-3.67 0.62zm1.15-4.15q2.11 0 3.61-0.82 1.5-0.82 2.3-2.18 0.8-1.36 0.8-2.88v-3.35q-0.28 0.28-1.07 0.5-0.79 0.22-1.79 0.4-1.01 0.18-1.95 0.29-0.94 0.12-1.55 0.19-1.45 0.19-2.66 0.63-1.2 0.45-1.92 1.27-0.71 0.82-0.71 2.18 0 1.24 0.64 2.08 0.65 0.85 1.75 1.27 1.1 0.42 2.55 0.42z"/>
			<path id="&lt;Compound Path&gt;" class="s4" d="m871.97-1084.98v15.51h-5.15v-26.2h4.92l0.05 6.42h-0.54q1.14-3.51 3.32-5.13 2.18-1.62 5.28-1.62 2.67 0 4.66 1.13 1.99 1.12 3.12 3.31 1.12 2.2 1.12 5.45v16.64h-5.15v-16q0-2.84-1.48-4.43-1.48-1.6-4.05-1.6-1.74 0-3.12 0.77-1.38 0.76-2.18 2.21-0.8 1.45-0.8 3.54z"/>
			<path id="&lt;Compound Path&gt;" fill-rule="evenodd" class="s4" d="m905.44-1068.95q-3.19 0-5.67-1.63-2.48-1.63-3.89-4.66-1.41-3.04-1.41-7.26 0-4.26 1.43-7.29 1.43-3.02 3.92-4.61 2.48-1.6 5.62-1.6 2.44 0 3.93 0.81 1.49 0.81 2.33 1.89 0.84 1.08 1.29 1.9h0.28v-12.99h5.16v34.92h-5.02v-4.1h-0.42q-0.45 0.85-1.31 1.93-0.87 1.07-2.37 1.88-1.5 0.81-3.87 0.81zm1.13-4.38q2.2 0 3.71-1.17 1.51-1.18 2.3-3.25 0.78-2.07 0.78-4.79 0-2.75-0.77-4.77-0.77-2.03-2.29-3.17-1.51-1.13-3.73-1.13-2.28 0-3.79 1.19-1.51 1.2-2.27 3.25-0.76 2.05-0.76 4.63 0 2.6 0.77 4.68 0.77 2.09 2.3 3.31 1.52 1.22 3.75 1.22z"/>
			<path id="&lt;Compound Path&gt;" class="s4" d="m943.9-1104.39v34.92h-5.34v-34.92z"/>
			<path id="&lt;Compound Path&gt;" fill-rule="evenodd" class="s4" d="m960.99-1068.95q-3.19 0-5.67-1.63-2.49-1.63-3.89-4.66-1.41-3.04-1.41-7.26 0-4.26 1.43-7.29 1.43-3.02 3.91-4.61 2.49-1.6 5.63-1.6 2.44 0 3.92 0.81 1.49 0.81 2.34 1.89 0.84 1.08 1.28 1.9h0.29v-12.99h5.15v34.92h-5.01v-4.1h-0.43q-0.44 0.85-1.31 1.93-0.86 1.07-2.36 1.88-1.5 0.81-3.87 0.81zm1.12-4.38q2.21 0 3.72-1.17 1.51-1.18 2.29-3.25 0.79-2.07 0.79-4.79 0-2.75-0.77-4.77-0.78-2.03-2.29-3.17-1.51-1.13-3.74-1.13-2.27 0-3.78 1.19-1.51 1.2-2.28 3.25-0.76 2.05-0.76 4.63 0 2.6 0.78 4.68 0.77 2.09 2.29 3.31 1.53 1.22 3.75 1.22z"/>
			<path id="&lt;Compound Path&gt;" class="s4" d="m992.21-1068.93q-3.87 0-6.68-1.66-2.82-1.66-4.33-4.69-1.51-3.02-1.51-7.1 0-4.03 1.49-7.1 1.49-3.07 4.21-4.79 2.72-1.73 6.37-1.73 2.25 0 4.34 0.74 2.08 0.74 3.75 2.31 1.66 1.57 2.63 4.07 0.98 2.49 0.98 6.06v1.82h-20.89v-3.84h18.24l-2.42 1.27q0-2.42-0.75-4.26-0.75-1.84-2.21-2.87-1.47-1.03-3.67-1.03-2.18 0-3.73 1.05-1.54 1.06-2.35 2.78-0.81 1.72-0.81 3.76v2.63q0 2.69 0.93 4.56 0.92 1.86 2.59 2.81 1.66 0.95 3.86 0.95 1.46 0 2.63-0.41 1.17-0.41 2.03-1.24 0.85-0.84 1.3-2.05l4.85 1.14q-0.63 2.02-2.12 3.57-1.49 1.54-3.71 2.4-2.21 0.85-5.02 0.85z"/>
			<path id="&lt;Compound Path&gt;" class="s4" d="m1014.26-1084.98v15.51h-5.15v-26.2h4.92l0.04 6.42h-0.54q1.15-3.51 3.33-5.13 2.18-1.62 5.28-1.62 2.67 0 4.66 1.13 1.99 1.12 3.12 3.31 1.12 2.2 1.12 5.45v16.64h-5.15v-16q0-2.84-1.48-4.43-1.48-1.6-4.05-1.6-1.74 0-3.12 0.77-1.38 0.76-2.18 2.21-0.8 1.45-0.8 3.54z"/>
			<path id="&lt;Compound Path&gt;" class="s4" d="m1049.18-1095.67v4.2h-14.2v-4.2zm-10.38-6.23h5.15v25.36q0 1.57 0.67 2.31 0.67 0.73 2.19 0.73 0.4 0 1.06-0.09 0.65-0.09 1.12-0.19l0.92 4.13q-0.82 0.28-1.76 0.41-0.94 0.13-1.85 0.13-3.57 0-5.53-1.84-1.97-1.84-1.97-5.17z"/>
			<path id="&lt;Compound Path&gt;" class="s4" d="m1056.92-1099.68q-1.34 0-2.29-0.9-0.95-0.9-0.95-2.14 0-1.29 0.95-2.18 0.95-0.89 2.29-0.89 1.33 0 2.29 0.89 0.97 0.89 0.97 2.18 0 1.26-0.97 2.15-0.96 0.89-2.29 0.89zm-2.6 30.21v-26.2h5.15v26.2z"/>
			<path id="&lt;Compound Path&gt;" class="s4" d="m1077.61-1095.67v4.2h-14.2v-4.2zm-10.38-6.23h5.15v25.36q0 1.57 0.67 2.31 0.67 0.73 2.19 0.73 0.4 0 1.06-0.09 0.65-0.09 1.12-0.19l0.92 4.13q-0.82 0.28-1.76 0.41-0.94 0.13-1.85 0.13-3.57 0-5.53-1.84-1.97-1.84-1.97-5.17z"/>
			<path id="&lt;Compound Path&gt;" class="s4" d="m1083.38-1060.04l1.26-4.2 0.59 0.14q1.34 0.35 2.4 0.19 1.07-0.16 1.85-1 0.79-0.83 1.26-2.52l0.56-1.92-9.96-26.32h5.58l5.18 14.88q0.86 2.49 1.44 4.95 0.57 2.46 1.25 4.9h-1.59q0.68-2.44 1.3-4.91 0.62-2.47 1.49-4.94l5.27-14.88h5.53l-11.39 29.84q-0.79 2.11-1.95 3.51-1.17 1.41-2.76 2.12-1.59 0.72-3.7 0.72-1.22 0-2.18-0.18-0.96-0.17-1.43-0.38z"/>
			<path id="&lt;Compound Path&gt;" class="s4" d="m1129.88-1104.39v34.92h-5.35v-34.92zm6 34.92h-8.62v-4.68h8.34q3.96 0 6.59-1.48 2.62-1.48 3.94-4.35 1.31-2.87 1.31-6.99 0-4.1-1.3-6.94-1.3-2.84-3.87-4.31-2.56-1.48-6.39-1.48h-8.81v-4.69h9.17q5.15 0 8.83 2.09 3.68 2.08 5.65 5.99 1.97 3.9 1.97 9.34 0 5.46-1.98 9.37-1.98 3.92-5.74 6.03-3.76 2.1-9.09 2.1z"/>
			<path id="&lt;Compound Path&gt;" class="s4" d="m1170.07-1068.93q-3.86 0-6.68-1.66-2.81-1.66-4.32-4.69-1.51-3.02-1.51-7.1 0-4.03 1.49-7.1 1.48-3.07 4.2-4.79 2.72-1.73 6.38-1.73 2.25 0 4.33 0.74 2.09 0.74 3.75 2.31 1.67 1.57 2.64 4.07 0.97 2.49 0.97 6.06v1.82h-20.88v-3.84h18.24l-2.42 1.27q0-2.42-0.75-4.26-0.75-1.84-2.21-2.87-1.47-1.03-3.67-1.03-2.18 0-3.73 1.05-1.54 1.06-2.35 2.78-0.81 1.72-0.81 3.76v2.63q0 2.69 0.92 4.56 0.93 1.86 2.59 2.81 1.67 0.95 3.87 0.95 1.45 0 2.63-0.41 1.17-0.41 2.02-1.24 0.86-0.84 1.3-2.05l4.86 1.14q-0.64 2.02-2.13 3.57-1.48 1.54-3.7 2.4-2.21 0.85-5.03 0.85z"/>
			<path id="&lt;Compound Path&gt;" class="s4" d="m1196.37-1068.93q-2.84 0-5.05-0.82-2.21-0.82-3.63-2.42-1.42-1.61-1.89-3.93l4.85-1.01q0.54 2.04 2.02 3.03 1.47 0.98 3.75 0.98 2.48 0 3.96-1.04 1.48-1.04 1.48-2.5 0-1.26-0.91-2.08-0.9-0.82-2.77-1.22l-4.41-1.01q-3.66-0.82-5.44-2.62-1.78-1.81-1.78-4.62 0-2.35 1.31-4.1 1.32-1.76 3.59-2.73 2.27-0.98 5.25-0.98 2.83 0 4.85 0.82 2.02 0.82 3.27 2.3 1.25 1.48 1.79 3.42l-4.61 1.01q-0.5-1.38-1.72-2.43-1.21-1.04-3.53-1.04-2.14 0-3.57 0.96-1.43 0.96-1.43 2.44 0 1.31 0.95 2.12 0.95 0.81 3.11 1.3l4.22 0.94q3.63 0.82 5.39 2.58 1.76 1.76 1.76 4.5 0 2.39-1.38 4.23-1.37 1.84-3.79 2.88-2.43 1.04-5.64 1.04z"/>
			<path id="&lt;Compound Path&gt;" class="s4" d="m1215.43-1099.68q-1.34 0-2.29-0.9-0.95-0.9-0.95-2.14 0-1.29 0.95-2.18 0.95-0.89 2.29-0.89 1.33 0 2.29 0.89 0.96 0.89 0.96 2.18 0 1.26-0.96 2.15-0.96 0.89-2.29 0.89zm-2.61 30.21v-26.2h5.16v26.2z"/>
			<path id="&lt;Compound Path&gt;" fill-rule="evenodd" class="s4" d="m1235.86-1059.11q-3.02 0-5.25-0.77-2.22-0.77-3.66-2.06-1.45-1.29-2.2-2.86l4.32-2.04q0.46 0.75 1.25 1.58 0.79 0.83 2.12 1.42 1.34 0.59 3.42 0.59 3 0 4.87-1.42 1.86-1.42 1.86-4.44v-5.11h-0.45q-0.46 0.86-1.3 1.87-0.83 1.01-2.32 1.75-1.49 0.74-3.88 0.74-3.09 0-5.56-1.46-2.47-1.45-3.93-4.31-1.45-2.86-1.45-7.03 0-4.17 1.44-7.16 1.44-2.99 3.94-4.58 2.49-1.6 5.63-1.6 2.42 0 3.93 0.8 1.51 0.8 2.37 1.89 0.85 1.09 1.3 1.91h0.37v-4.27h5.04v26.58q0 3.45-1.56 5.66-1.55 2.21-4.24 3.27-2.68 1.05-6.06 1.05zm-0.02-15.04q2.2 0 3.71-1.02 1.52-1.02 2.29-2.96 0.77-1.93 0.77-4.6 0-2.65-0.77-4.64-0.77-1.99-2.29-3.12-1.51-1.12-3.71-1.12-2.27 0-3.8 1.18-1.52 1.18-2.29 3.19-0.78 2-0.78 4.51 0 2.55 0.78 4.49 0.77 1.93 2.3 3.01 1.54 1.08 3.79 1.08z"/>
			<path id="&lt;Compound Path&gt;" class="s4" d="m1259.82-1084.98v15.51h-5.16v-26.2h4.92l0.05 6.42h-0.54q1.15-3.51 3.33-5.13 2.18-1.62 5.27-1.62 2.67 0 4.67 1.13 1.99 1.12 3.11 3.31 1.13 2.2 1.13 5.45v16.64h-5.16v-16q0-2.84-1.48-4.43-1.47-1.6-4.05-1.6-1.73 0-3.12 0.77-1.38 0.76-2.18 2.21-0.79 1.45-0.79 3.54z"/>
		</g>
		<g id="&lt;Group&gt;">
			<g id="&lt;Group&gt;">
				<path id="&lt;Compound Path&gt;" class="s5" d="m338.4-369.44l-23.27 44.82v25.5h-11.54v-25.5l-23.37-44.82h12.85l16.29 34.5 16.29-34.5z"/>
				<path id="&lt;Compound Path&gt;" fill-rule="evenodd" class="s5" d="m353.37-301.8q-6.37-3.59-10.01-10.12-3.65-6.52-3.65-15.13 0-8.5 3.75-15.07 3.74-6.58 10.22-10.12 6.47-3.54 14.47-3.54 7.99 0 14.47 3.54 6.47 3.54 10.22 10.12 3.74 6.57 3.74 15.07 0 8.5-3.84 15.08-3.85 6.58-10.48 10.17-6.63 3.59-14.62 3.59-7.89 0-14.27-3.59zm22.62-8.55q3.89-2.12 6.32-6.37 2.43-4.26 2.43-10.33 0-6.07-2.32-10.27-2.33-4.2-6.18-6.32-3.84-2.13-8.29-2.13-4.46 0-8.25 2.13-3.8 2.12-6.02 6.32-2.23 4.2-2.23 10.27 0 9.01 4.61 13.92 4.6 4.91 11.58 4.9 4.45 0 8.35-2.12z"/>
				<path id="&lt;Compound Path&gt;" class="s5" d="m458.51-354.87v55.75h-11.54v-6.58q-2.73 3.45-7.13 5.42-4.4 1.97-9.36 1.97-6.58 0-11.79-2.73-5.21-2.73-8.2-8.1-2.98-5.36-2.98-12.95v-32.78h11.43v31.06q0 7.49 3.75 11.49 3.74 3.99 10.22 3.99 6.47 0 10.27-3.99 3.79-4 3.79-11.49v-31.06z"/>
				<path id="&lt;Compound Path&gt;" class="s5" d="m489.93-353.41q4.19-2.37 9.96-2.37v11.94h-2.93q-6.78 0-10.27 3.44-3.49 3.44-3.49 11.94v29.34h-11.54v-55.75h11.54v8.09q2.52-4.25 6.73-6.63z"/>
				<path id="&lt;Compound Path&gt;" fill-rule="evenodd" class="s5" d="m579.47-365.14q8.45 4.3 13.06 12.34 4.6 8.05 4.6 18.77 0 10.73-4.6 18.62-4.61 7.89-13.06 12.09-8.45 4.2-19.68 4.2h-22.97v-70.32h22.97q11.23 0 19.68 4.3zm-0.75 49.93q6.57-6.67 6.57-18.82 0-12.24-6.57-19.12-6.58-6.88-18.93-6.88h-11.43v51.5h11.43q12.35 0 18.93-6.68z"/>
				<path id="&lt;Compound Path&gt;" fill-rule="evenodd" class="s5" d="m610.24-342.12q3.49-6.48 9.51-10.07 6.02-3.59 13.3-3.59 6.58 0 11.49 2.58 4.91 2.58 7.84 6.42v-8.09h11.64v55.75h-11.64v-8.3q-2.93 3.95-7.99 6.58-5.06 2.63-11.54 2.63-7.18 0-13.15-3.69-5.97-3.69-9.46-10.32-3.49-6.63-3.49-15.03 0-8.4 3.49-14.87zm39.76 5.06q-2.38-4.25-6.22-6.48-3.85-2.22-8.3-2.23-4.45 0-8.29 2.18-3.85 2.18-6.23 6.37-2.38 4.2-2.38 9.97 0 5.77 2.38 10.12 2.38 4.35 6.28 6.63 3.89 2.27 8.24 2.27 4.45 0.01 8.3-2.22 3.84-2.23 6.22-6.53 2.38-4.3 2.38-10.07 0-5.76-2.38-10.01z"/>
				<path id="&lt;Compound Path&gt;" class="s5" d="m679.8-364.38q-2.12-2.13-2.12-5.27 0-3.13 2.12-5.26 2.13-2.12 5.26-2.12 3.04 0 5.16 2.12 2.13 2.13 2.13 5.26 0 3.14-2.13 5.27-2.12 2.12-5.16 2.12-3.13 0-5.26-2.12zm10.93 9.51v55.75h-11.53v-55.75z"/>
				<path id="&lt;Compound Path&gt;" class="s5" d="m717.44-374v74.88h-11.53v-74.88z"/>
				<path id="&lt;Compound Path&gt;" class="s5" d="m786.86-354.87l-34.2 81.96h-11.94l11.33-27.12-21.96-54.84h12.85l15.69 42.5 16.29-42.5z"/>
				<path id="&lt;Compound Path&gt;" class="s5" d="m822.83-352.95q4.8-8.2 13.05-12.8 8.25-4.6 18.06-4.6 11.24 0 19.99 5.51 8.75 5.52 12.7 15.63h-13.87q-2.73-5.56-7.58-8.29-4.86-2.74-11.24-2.74-6.98 0-12.44 3.14-5.47 3.14-8.55 9.01-3.09 5.87-3.09 13.66 0 7.79 3.09 13.66 3.08 5.87 8.55 9.05 5.46 3.19 12.44 3.19 6.38 0 11.24-2.73 4.85-2.73 7.58-8.3h13.87q-3.95 10.12-12.7 15.58-8.75 5.47-19.99 5.47-9.91 0-18.11-4.61-8.2-4.6-13-12.79-4.81-8.2-4.81-18.52 0-10.32 4.81-18.52z"/>
				<path id="&lt;Compound Path&gt;" class="s5" d="m940.31-353.05q5.01 2.73 7.89 8.09 2.88 5.37 2.88 12.96v32.88h-11.43v-31.16q0-7.49-3.74-11.49-3.75-4-10.22-4-6.48 0-10.27 4-3.8 4-3.8 11.49v31.16h-11.53v-74.88h11.53v25.6q2.93-3.54 7.44-5.46 4.5-1.92 9.86-1.92 6.38 0 11.39 2.73z"/>
				<path id="&lt;Compound Path&gt;" fill-rule="evenodd" class="s5" d="m1016.45-322.7h-42.6q0.51 6.68 4.96 10.73 4.45 4.05 10.93 4.05 9.31 0 13.15-7.79h12.45q-2.53 7.69-9.16 12.59-6.63 4.91-16.44 4.91-8 0-14.32-3.59-6.33-3.59-9.92-10.12-3.59-6.52-3.59-15.13 0-8.6 3.49-15.12 3.49-6.53 9.82-10.07 6.32-3.54 14.52-3.54 7.89 0 14.06 3.44 6.17 3.44 9.62 9.66 3.43 6.22 3.44 14.32 0 3.14-0.41 5.66zm-11.64-9.3q-0.1-6.38-4.55-10.22-4.45-3.85-11.03-3.85-5.97 0-10.22 3.79-4.25 3.8-5.06 10.28z"/>
				<path id="&lt;Compound Path&gt;" class="s5" d="m1029.86-342.17q3.49-6.53 9.66-10.07 6.17-3.54 14.17-3.54 10.11 0 16.74 4.8 6.63 4.81 8.96 13.71h-12.45q-1.52-4.14-4.85-6.47-3.34-2.33-8.4-2.33-7.09 0-11.29 5.01-4.2 5.01-4.2 14.01 0 9.01 4.2 14.07 4.2 5.06 11.29 5.06 10.01 0 13.25-8.8h12.45q-2.43 8.49-9.11 13.5-6.68 5.01-16.59 5.01-8 0-14.17-3.59-6.17-3.59-9.66-10.12-3.49-6.52-3.49-15.13 0-8.6 3.49-15.12z"/>
				<path id="&lt;Compound Path&gt;" class="s5" d="m1112.98-326.95l25.7 27.83h-15.58l-20.64-23.98v23.98h-11.54v-74.88h11.54v43.51l20.24-24.38h15.98z"/>
				<path id="&lt;Compound Path&gt;" class="s5" d="m1189.78-340.61v9.72h-41.58v-9.72z"/>
				<path id="&lt;Compound Path&gt;" class="s5" d="m1217.71-369.44v70.32h-11.54v-70.32z"/>
				<path id="&lt;Compound Path&gt;" class="s5" d="m1272.81-353.05q5.21 2.73 8.14 8.09 2.94 5.37 2.94 12.96v32.88h-11.44v-31.16q0-7.49-3.74-11.49-3.75-4-10.22-4-6.48 0-10.27 4-3.8 4-3.8 11.49v31.16h-11.53v-55.75h11.53v6.37q2.84-3.44 7.24-5.36 4.4-1.92 9.36-1.92 6.57 0 11.79 2.73z"/>
				<path id="&lt;Compound Path&gt;" fill-rule="evenodd" class="s5" d="m1372.12-329.27q3.95 4.96 3.95 11.23 0 5.36-2.79 9.66-2.78 4.31-8.04 6.78-5.26 2.48-12.24 2.48h-28.13v-70.32h26.81q7.19 0 12.35 2.42 5.16 2.43 7.79 6.53 2.63 4.1 2.63 9.16 0 6.07-3.24 10.12-3.24 4.05-8.7 5.97 5.66 1.01 9.61 5.97zm-35.72-10.63h14.27q5.66 0 8.85-2.58 3.19-2.58 3.19-7.43 0-4.76-3.19-7.44-3.19-2.68-8.85-2.68h-14.27zm24.79 28.53q3.34-2.83 3.34-7.89 0-5.16-3.54-8.2-3.54-3.03-9.41-3.03h-15.18v21.96h15.59q5.86 0 9.2-2.84z"/>
				<path id="&lt;Compound Path&gt;" class="s5" d="m1439.11-354.87v55.75h-11.54v-6.58q-2.73 3.45-7.13 5.42-4.41 1.97-9.36 1.97-6.58 0-11.79-2.73-5.21-2.73-8.2-8.1-2.98-5.36-2.98-12.95v-32.78h11.43v31.06q0 7.49 3.75 11.49 3.74 3.99 10.22 3.99 6.47 0 10.27-3.99 3.79-4 3.79-11.49v-31.06z"/>
				<path id="&lt;Compound Path&gt;" fill-rule="evenodd" class="s5" d="m1453.93-342.12q3.49-6.48 9.51-10.07 6.02-3.59 13.41-3.59 5.46 0 10.77 2.37 5.32 2.38 8.45 6.33v-26.92h11.64v74.88h-11.64v-8.4q-2.83 4.05-7.84 6.68-5.01 2.63-11.48 2.63-7.29 0-13.31-3.69-6.02-3.69-9.51-10.32-3.49-6.63-3.49-15.03 0-8.4 3.49-14.87zm39.77 5.06q-2.38-4.25-6.23-6.48-3.84-2.22-8.29-2.23-4.46 0-8.3 2.18-3.85 2.18-6.22 6.37-2.38 4.2-2.38 9.97 0 5.77 2.38 10.12 2.37 4.35 6.27 6.63 3.89 2.27 8.25 2.27 4.45 0.01 8.29-2.22 3.85-2.23 6.23-6.53 2.37-4.3 2.37-10.07 0-5.76-2.37-10.01z"/>
				<path id="&lt;Compound Path&gt;" fill-rule="evenodd" class="s5" d="m1522.53-342.12q3.5-6.48 9.52-10.07 6.02-3.59 13.4-3.59 5.47 0 10.78 2.37 5.31 2.38 8.45 6.33v-26.92h11.64v74.88h-11.64v-8.4q-2.83 4.05-7.84 6.68-5.01 2.63-11.49 2.63-7.28 0-13.3-3.69-6.02-3.69-9.52-10.32-3.49-6.63-3.49-15.03 0-8.4 3.49-14.87zm39.77 5.06q-2.38-4.25-6.22-6.48-3.85-2.22-8.3-2.23-4.45 0-8.3 2.18-3.84 2.18-6.22 6.37-2.38 4.2-2.38 9.97 0 5.77 2.38 10.12 2.38 4.35 6.27 6.63 3.9 2.27 8.25 2.27 4.45 0.01 8.3-2.22 3.84-2.23 6.22-6.53 2.38-4.3 2.38-10.07 0-5.76-2.38-10.01z"/>
				<path id="&lt;Compound Path&gt;" class="s5" d="m1643.71-354.87l-34.2 81.96h-11.94l11.33-27.12-21.96-54.84h12.85l15.69 42.5 16.29-42.5z"/>
			</g>
			<g id="&lt;Group&gt;">
				<g id="&lt;Group&gt;">
					<path id="&lt;Compound Path&gt;" class="s6" d="m473.95-694.44q-10.64-13.54-27.81-21.53-17.17-7.98-33.13-7.98-8.23 0-16.68 1.45-8.47 1.46-15.24 5.56-6.78 4.12-11.37 10.64-4.59 6.53-4.59 16.69 0 8.71 3.63 14.51 3.62 5.8 10.64 10.16 7 4.35 16.68 7.98 9.67 3.63 21.77 7.49 17.41 5.81 36.27 12.82 18.86 7.02 34.34 18.62 15.48 11.62 25.64 28.78 10.16 17.18 10.15 42.81 0 29.51-10.88 51.02-10.88 21.53-29.26 35.55-18.39 14.04-42.08 20.8-23.7 6.77-48.85 6.77-36.76 0-71.1-12.82-34.34-12.81-57.07-36.51l54.17-55.14q12.57 15.48 33.13 25.87 20.56 10.41 40.87 10.4 9.19 0.01 17.9-1.93 8.7-1.93 15.23-6.29 6.53-4.35 10.4-11.61 3.87-7.25 3.87-17.41 0-9.67-4.84-16.44-4.84-6.77-13.78-12.34-8.95-5.55-22.25-10.15-13.31-4.59-30.23-9.92-16.45-5.32-32.16-12.57-15.72-7.26-28.05-18.62-12.34-11.36-19.83-27.57-7.5-16.21-7.5-39.42 0-28.54 11.61-48.85 11.61-20.32 30.47-33.38 18.86-13.05 42.56-19.1 23.69-6.05 47.88-6.05 29.02 0.01 59.25 10.64 30.22 10.65 52.96 31.44z"/>
					<path id="&lt;Compound Path&gt;" class="s6" d="m1062.93-441v-342.44h83.19v270.37h132.53v72.07z"/>
				</g>
				<g id="&lt;Group&gt;">
					<g id="&lt;Group&gt;">
						<g id="&lt;Group&gt;">
							<path id="&lt;Path&gt;" class="s7" d="m1021.31-667.36c0 129.91-105.31 235.22-235.22 235.22-129.91 0-235.22-105.31-235.22-235.22 0-129.91 105.31-235.22 235.22-235.22 129.91 0 235.22 105.31 235.22 235.22z"/>
						</g>
						<path id="&lt;Path&gt;" class="s8" d="m1021.31-667.36c0-11.39-0.82-22.58-2.39-33.53l-103.07-103.07-266.22 266.22 103.26 103.26c10.84 1.53 21.93 2.34 33.2 2.34 129.91 0 235.22-105.31 235.22-235.22z"/>
						<path id="&lt;Path&gt;" class="s9" d="m943.61-564.45c-56.84 87-173.44 111.44-260.43 54.6-87-56.83-111.45-173.43-54.61-260.43 56.84-86.99 173.44-111.44 260.43-54.6 87 56.84 111.44 173.44 54.61 260.43z"/>
						<g id="&lt;Group&gt;">
							<path id="&lt;Path&gt;" class="s6" d="m768.22-712.52c0 27.51-22.3 49.81-49.81 49.81-27.51 0-49.81-22.3-49.81-49.81 0-27.51 22.3-49.81 49.81-49.81 27.51 0 49.81 22.3 49.81 49.81z"/>
							<g id="&lt;Clip Group&gt;" clip-path="url(#cp1)">
								<path id="&lt;Path&gt;" class="s10" d="m715.31-715.05c0 18.24-14.79 33.03-33.03 33.03-18.25 0-33.04-14.79-33.04-33.03 0-18.25 14.79-33.04 33.04-33.04 18.24 0 33.03 14.79 33.03 33.04z"/>
							</g>
							<path id="&lt;Path&gt;" class="s6" d="m903.54-712.52c0 27.51-22.3 49.81-49.81 49.81-27.51 0-49.8-22.3-49.8-49.81 0-27.51 22.29-49.81 49.8-49.81 27.51 0 49.81 22.3 49.81 49.81z"/>
							<g id="&lt;Clip Group&gt;" clip-path="url(#cp2)">
								<path id="&lt;Path&gt;" class="s10" d="m850.63-715.05c0 18.24-14.79 33.03-33.03 33.03-18.25 0-33.04-14.79-33.04-33.03 0-18.25 14.79-33.04 33.04-33.04 18.24 0 33.03 14.79 33.03 33.04z"/>
							</g>
						</g>
						<path id="&lt;Path&gt;" class="s11" d="m634.13-766.57c56.59-86.61 172.42-111.21 259.29-55.33q-2.18-1.52-4.42-2.98c-86.99-56.84-203.59-32.39-260.43 54.6-56.84 87-32.39 203.6 54.6 260.43q0.58 0.37 1.15 0.73c-83.39-57.85-106.05-171.94-50.19-257.45z"/>
						<path id="&lt;Path&gt;" class="s12" d="m921.64-797.91c59.58 61.75 70.89 158.57 21.97 233.46-56.84 87-173.44 111.44-260.43 54.6-10.34-6.74-19.77-14.35-28.31-22.63 9.63 9.98 20.53 19.05 32.63 26.96 87 56.84 203.6 32.39 260.43-54.6 50.09-76.66 37.04-176.31-26.29-237.79z"/>
						<path id="&lt;Path&gt;" class="s13" d="m563.28-656.72c0-129.91 105.31-235.22 235.22-235.22 55.5 0 106.5 19.23 146.73 51.38-41.89-38.51-97.76-62.03-159.14-62.03-129.91 0-235.22 105.32-235.22 235.23 0 74.41 34.56 140.74 88.49 183.84-46.76-42.99-76.08-104.67-76.08-173.2z"/>
					</g>
				</g>
				<g id="&lt;Group&gt;">
					<path id="&lt;Path&gt;" class="s14" d="m1293.36-608.33c2.65 100.12 85.96 179.14 186.08 176.5 100.12-2.65 179.14-85.96 176.5-186.08-2.65-100.12-85.96-179.14-186.08-176.5-100.13 2.65-179.15 85.96-176.5 186.08z"/>
					<path id="&lt;Path&gt;" class="s3" d="m1474.94-602.06c5.87-0.16 10.5-5.04 10.35-10.91l-3.92-148.4c-0.16-5.88-5.04-10.51-10.91-10.35-5.88 0.15-10.51 5.04-10.35 10.91l3.92 148.4c0.15 5.87 5.04 10.5 10.91 10.35z"/>
					<path id="&lt;Path&gt;" class="s3" d="m1465.79-618.66c-3.28 4.87-2 11.48 2.87 14.76l103.33 69.72c4.87 3.29 11.48 2 14.77-2.86 3.28-4.87 2-11.48-2.87-14.77l-103.33-69.72c-4.87-3.28-11.48-2-14.77 2.87z"/>
					<path id="&lt;Path&gt;" class="s3" d="m1447.63-611.97c0.4 14.92 12.81 26.69 27.73 26.3 14.91-0.4 26.69-12.81 26.29-27.73-0.39-14.91-12.8-26.69-27.72-26.29-14.92 0.39-26.69 12.8-26.3 27.72z"/>
					<path id="&lt;Path&gt;" class="s6" d="m1463.39-612.39c0.17 6.22 5.34 11.12 11.55 10.96 6.21-0.17 11.12-5.34 10.95-11.55-0.16-6.21-5.33-11.12-11.55-10.95-6.21 0.16-11.11 5.33-10.95 11.54z"/>
				</g>
			</g>
		</g>
		<path id="&lt;Path&gt;" class="s1" d="m1921.55 1081.22h-1920v-1080h1920z"/>
		<g id="&lt;Group&gt;">
			<path id="&lt;Compound Path&gt;" class="s2" d="m658.62 96.67q-3.92 0-6.8-1.25-2.88-1.24-4.51-3.55-1.63-2.31-1.79-5.49h5.36q0.17 1.9 1.23 3.14 1.07 1.24 2.78 1.85 1.71 0.61 3.7 0.61 2.23 0 3.95-0.69 1.73-0.69 2.73-1.97 1.01-1.28 1.01-2.97 0-1.52-0.88-2.49-0.88-0.98-2.36-1.62-1.49-0.64-3.39-1.14l-4.08-1.12q-4.29-1.15-6.69-3.4-2.4-2.25-2.4-5.84 0-3.02 1.63-5.28 1.62-2.26 4.43-3.52 2.8-1.25 6.31-1.25 3.59 0 6.32 1.25 2.73 1.26 4.29 3.44 1.56 2.18 1.63 4.97h-5.21q-0.25-2.39-2.21-3.71-1.96-1.31-4.94-1.31-2.1 0-3.66 0.66-1.56 0.65-2.42 1.81-0.85 1.16-0.85 2.64 0 1.66 1.02 2.68 1.02 1.02 2.48 1.62 1.47 0.6 2.8 0.95l3.4 0.89q1.66 0.42 3.43 1.14 1.77 0.71 3.27 1.85 1.5 1.14 2.43 2.81 0.92 1.68 0.92 4.04 0 2.96-1.52 5.28-1.52 2.32-4.42 3.64-2.89 1.33-6.99 1.33z"/>
			<path id="&lt;Compound Path&gt;" fill-rule="evenodd" class="s2" d="m692.46 96.55q-4.52 0-8.1-2.15-3.57-2.14-5.62-6.16-2.05-4.02-2.05-9.6 0-5.6 2.05-9.62 2.05-4.02 5.62-6.17 3.58-2.16 8.1-2.16 4.52 0 8.08 2.16 3.55 2.15 5.6 6.17 2.05 4.02 2.05 9.62 0 5.58-2.05 9.6-2.05 4.02-5.6 6.16-3.56 2.15-8.08 2.15zm0-4.88q2.98 0 5.33-1.48 2.36-1.49 3.73-4.41 1.37-2.92 1.37-7.14 0-4.26-1.37-7.18-1.37-2.92-3.73-4.41-2.35-1.49-5.33-1.49-3 0-5.37 1.5-2.36 1.5-3.73 4.42-1.38 2.92-1.38 7.16 0 4.22 1.38 7.13 1.37 2.9 3.73 4.4 2.37 1.5 5.37 1.5z"/>
			<path id="&lt;Compound Path&gt;" class="s2" d="m714.7 96.08v-34.92h5.35v30.33h15.82v4.59z"/>
			<path id="&lt;Compound Path&gt;" fill-rule="evenodd" class="s2" d="m755.04 96.55q-4.52 0-8.1-2.15-3.57-2.14-5.62-6.16-2.05-4.02-2.05-9.6 0-5.6 2.05-9.62 2.05-4.02 5.62-6.17 3.58-2.16 8.1-2.16 4.52 0 8.07 2.16 3.55 2.15 5.61 6.17 2.05 4.02 2.05 9.62 0 5.58-2.05 9.6-2.06 4.02-5.61 6.16-3.55 2.15-8.07 2.15zm0-4.88q2.98 0 5.33-1.48 2.36-1.49 3.73-4.41 1.37-2.92 1.37-7.14 0-4.26-1.37-7.18-1.37-2.92-3.73-4.41-2.35-1.49-5.33-1.49-3 0-5.37 1.5-2.37 1.5-3.74 4.42-1.37 2.92-1.37 7.16 0 4.22 1.37 7.13 1.37 2.9 3.74 4.4 2.37 1.5 5.37 1.5z"/>
			<path id="&lt;Compound Path&gt;" fill-rule="evenodd" class="s2" d="m790.08 96.08v-34.92h12.87q3.72 0 6.16 1.22 2.44 1.22 3.63 3.29 1.2 2.07 1.2 4.65 0 2.18-0.8 3.67-0.8 1.49-2.14 2.39-1.35 0.9-2.97 1.33v0.35q1.76 0.07 3.42 1.11 1.67 1.04 2.76 2.93 1.09 1.89 1.09 4.58 0 2.65-1.26 4.78-1.25 2.14-3.85 3.38-2.6 1.24-6.68 1.24zm5.34-19.8h7.01q1.76 0 3.19-0.68 1.43-0.68 2.25-1.93 0.82-1.24 0.82-2.9 0-2.16-1.5-3.6-1.5-1.44-4.62-1.44h-7.15zm0 15.21h7.55q3.75 0 5.39-1.45 1.64-1.46 1.64-3.61 0-1.69-0.83-3.05-0.83-1.36-2.36-2.17-1.52-0.81-3.63-0.81h-7.76z"/>
			<path id="&lt;Compound Path&gt;" class="s2" d="m821.2 96.08v-26.2h5v4.22h0.28q0.72-2.16 2.53-3.38 1.8-1.22 4.1-1.22 0.49 0 1.12 0.04 0.64 0.03 1.06 0.1v4.92q-0.28-0.09-1.08-0.18-0.8-0.1-1.62-0.1-1.78 0-3.21 0.75-1.43 0.75-2.22 2.08-0.8 1.32-0.8 3.06v15.91z"/>
			<path id="&lt;Compound Path&gt;" fill-rule="evenodd" class="s2" d="m846.89 96.67q-2.48 0-4.5-0.93-2.01-0.93-3.19-2.71-1.17-1.78-1.17-4.36 0-2.22 0.86-3.65 0.85-1.43 2.32-2.28 1.46-0.84 3.26-1.26 1.79-0.42 3.64-0.63 2.32-0.29 3.77-0.46 1.46-0.18 2.15-0.59 0.69-0.41 0.69-1.32v-0.14q0-1.48-0.56-2.49-0.57-1-1.68-1.55-1.11-0.56-2.78-0.56-1.71 0-2.94 0.53-1.23 0.53-1.99 1.35-0.76 0.82-1.14 1.71l-4.85-1.27q0.89-2.34 2.56-3.77 1.66-1.43 3.82-2.08 2.15-0.66 4.45-0.66 1.59 0 3.37 0.37 1.79 0.38 3.36 1.36 1.57 0.99 2.55 2.77 0.99 1.78 0.99 4.64v17.39h-5v-3.59h-0.25q-0.52 1.01-1.53 1.97-1.01 0.96-2.54 1.59-1.54 0.62-3.67 0.62zm1.15-4.15q2.11 0 3.61-0.82 1.5-0.82 2.3-2.18 0.79-1.36 0.79-2.89v-3.35q-0.28 0.28-1.06 0.51-0.79 0.22-1.8 0.4-1 0.17-1.94 0.29-0.94 0.12-1.55 0.19-1.45 0.18-2.66 0.63-1.21 0.44-1.92 1.26-0.72 0.82-0.72 2.18 0 1.25 0.65 2.09 0.64 0.84 1.74 1.27 1.11 0.42 2.56 0.42z"/>
			<path id="&lt;Compound Path&gt;" class="s2" d="m871.97 80.56v15.52h-5.16v-26.2h4.92l0.05 6.42h-0.54q1.15-3.52 3.33-5.13 2.18-1.62 5.27-1.62 2.68 0 4.67 1.12 1.99 1.13 3.12 3.32 1.12 2.19 1.12 5.45v16.64h-5.16v-16.01q0-2.83-1.47-4.43-1.48-1.59-4.06-1.59-1.73 0-3.11 0.76-1.39 0.76-2.18 2.22-0.8 1.45-0.8 3.53z"/>
			<path id="&lt;Compound Path&gt;" fill-rule="evenodd" class="s2" d="m905.44 96.6q-3.19 0-5.67-1.63-2.49-1.63-3.89-4.67-1.41-3.03-1.41-7.25 0-4.27 1.43-7.29 1.43-3.02 3.91-4.62 2.49-1.59 5.63-1.59 2.44 0 3.92 0.81 1.49 0.81 2.34 1.88 0.84 1.08 1.28 1.9h0.29v-12.98h5.15v34.92h-5.01v-4.1h-0.43q-0.44 0.84-1.31 1.92-0.87 1.08-2.37 1.89-1.5 0.81-3.86 0.81zm1.12-4.39q2.21 0 3.72-1.17 1.51-1.17 2.29-3.24 0.79-2.08 0.79-4.8 0-2.74-0.77-4.77-0.78-2.02-2.29-3.16-1.51-1.14-3.74-1.14-2.27 0-3.78 1.2-1.51 1.19-2.28 3.24-0.76 2.05-0.76 4.63 0 2.6 0.78 4.69 0.77 2.09 2.29 3.3 1.53 1.22 3.75 1.22z"/>
			<path id="&lt;Compound Path&gt;" class="s2" d="m943.9 61.16v34.92h-5.35v-34.92z"/>
			<path id="&lt;Compound Path&gt;" fill-rule="evenodd" class="s2" d="m960.98 96.6q-3.18 0-5.67-1.63-2.48-1.63-3.89-4.67-1.4-3.03-1.4-7.25 0-4.27 1.43-7.29 1.43-3.02 3.91-4.62 2.48-1.59 5.62-1.59 2.44 0 3.93 0.81 1.49 0.81 2.33 1.88 0.85 1.08 1.29 1.9h0.28v-12.98h5.16v34.92h-5.02v-4.1h-0.42q-0.44 0.84-1.31 1.92-0.87 1.08-2.37 1.89-1.5 0.81-3.87 0.81zm1.13-4.39q2.2 0 3.71-1.17 1.52-1.17 2.3-3.24 0.79-2.08 0.79-4.8 0-2.74-0.78-4.77-0.77-2.02-2.28-3.16-1.51-1.14-3.74-1.14-2.27 0-3.79 1.2-1.51 1.19-2.27 3.24-0.76 2.05-0.76 4.63 0 2.6 0.77 4.69 0.78 2.09 2.3 3.3 1.52 1.22 3.75 1.22z"/>
			<path id="&lt;Compound Path&gt;" class="s2" d="m992.2 96.62q-3.86 0-6.68-1.66-2.81-1.67-4.32-4.69-1.51-3.03-1.51-7.1 0-4.04 1.49-7.11 1.48-3.07 4.2-4.79 2.72-1.72 6.38-1.72 2.25 0 4.33 0.74 2.09 0.74 3.75 2.31 1.67 1.57 2.64 4.06 0.97 2.5 0.97 6.06v1.83h-20.88v-3.84h18.23l-2.41 1.26q0-2.41-0.75-4.25-0.75-1.84-2.21-2.87-1.47-1.04-3.67-1.04-2.18 0-3.73 1.06-1.55 1.05-2.35 2.78-0.81 1.72-0.81 3.76v2.62q0 2.7 0.92 4.56 0.93 1.87 2.59 2.81 1.67 0.95 3.87 0.95 1.45 0 2.62-0.41 1.18-0.41 2.03-1.24 0.86-0.83 1.3-2.05l4.85 1.15q-0.63 2.01-2.12 3.56-1.48 1.55-3.7 2.4-2.21 0.86-5.03 0.86z"/>
			<path id="&lt;Compound Path&gt;" class="s2" d="m1014.26 80.56v15.52h-5.16v-26.2h4.92l0.05 6.42h-0.54q1.15-3.52 3.33-5.13 2.18-1.62 5.27-1.62 2.67 0 4.67 1.12 1.99 1.13 3.11 3.32 1.13 2.19 1.13 5.45v16.64h-5.16v-16.01q0-2.83-1.47-4.43-1.48-1.59-4.06-1.59-1.73 0-3.12 0.76-1.38 0.76-2.18 2.22-0.79 1.45-0.79 3.53z"/>
			<path id="&lt;Compound Path&gt;" class="s2" d="m1049.18 69.88v4.19h-14.2v-4.19zm-10.39-6.24h5.16v25.36q0 1.57 0.67 2.31 0.67 0.74 2.19 0.74 0.4 0 1.05-0.09 0.66-0.1 1.13-0.19l0.91 4.12q-0.82 0.28-1.75 0.41-0.94 0.13-1.86 0.13-3.56 0-5.53-1.84-1.97-1.84-1.97-5.17z"/>
			<path id="&lt;Compound Path&gt;" class="s2" d="m1056.91 65.87q-1.33 0-2.28-0.9-0.95-0.91-0.95-2.15 0-1.29 0.95-2.18 0.95-0.89 2.28-0.89 1.34 0 2.3 0.89 0.96 0.89 0.96 2.18 0 1.27-0.96 2.16-0.96 0.89-2.3 0.89zm-2.6 30.21v-26.2h5.16v26.2z"/>
			<path id="&lt;Compound Path&gt;" class="s2" d="m1077.61 69.88v4.19h-14.2v-4.19zm-10.39-6.24h5.16v25.36q0 1.57 0.67 2.31 0.67 0.74 2.19 0.74 0.4 0 1.05-0.09 0.66-0.1 1.13-0.19l0.91 4.12q-0.82 0.28-1.76 0.41-0.93 0.13-1.85 0.13-3.56 0-5.53-1.84-1.97-1.84-1.97-5.17z"/>
			<path id="&lt;Compound Path&gt;" class="s2" d="m1083.37 105.5l1.27-4.19 0.59 0.14q1.33 0.35 2.4 0.18 1.07-0.16 1.85-0.99 0.79-0.83 1.25-2.52l0.57-1.92-9.96-26.32h5.57l5.18 14.88q0.87 2.48 1.44 4.95 0.58 2.46 1.26 4.89h-1.59q0.67-2.43 1.3-4.91 0.62-2.47 1.48-4.93l5.28-14.88h5.53l-11.39 29.83q-0.8 2.11-1.96 3.52-1.16 1.4-2.75 2.12-1.6 0.71-3.71 0.71-1.21 0-2.18-0.17-0.96-0.18-1.43-0.39z"/>
			<path id="&lt;Compound Path&gt;" class="s2" d="m1129.87 61.16v34.92h-5.34v-34.92zm6 34.92h-8.62v-4.69h8.34q3.96 0 6.59-1.47 2.62-1.48 3.93-4.35 1.32-2.87 1.32-7 0-4.1-1.31-6.94-1.3-2.83-3.86-4.31-2.57-1.47-6.39-1.47h-8.81v-4.69h9.16q5.16 0 8.84 2.08 3.68 2.09 5.65 5.99 1.97 3.9 1.97 9.34 0 5.46-1.98 9.38-1.99 3.91-5.75 6.02-3.76 2.11-9.08 2.11z"/>
			<path id="&lt;Compound Path&gt;" class="s2" d="m1170.07 96.62q-3.87 0-6.68-1.66-2.81-1.67-4.32-4.69-1.52-3.03-1.52-7.1 0-4.04 1.49-7.11 1.49-3.07 4.21-4.79 2.72-1.72 6.37-1.72 2.25 0 4.34 0.74 2.09 0.74 3.75 2.31 1.66 1.57 2.64 4.06 0.97 2.5 0.97 6.06v1.83h-20.88v-3.84h18.23l-2.41 1.26q0-2.41-0.75-4.25-0.75-1.84-2.22-2.87-1.46-1.04-3.67-1.04-2.17 0-3.72 1.06-1.55 1.05-2.36 2.78-0.81 1.72-0.81 3.76v2.62q0 2.7 0.93 4.56 0.93 1.87 2.59 2.81 1.66 0.95 3.87 0.95 1.45 0 2.62-0.41 1.17-0.41 2.03-1.24 0.85-0.83 1.3-2.05l4.85 1.15q-0.63 2.01-2.12 3.56-1.49 1.55-3.7 2.4-2.22 0.86-5.03 0.86z"/>
			<path id="&lt;Compound Path&gt;" class="s2" d="m1196.37 96.62q-2.84 0-5.05-0.82-2.22-0.82-3.64-2.43-1.41-1.6-1.88-3.92l4.85-1.01q0.54 2.04 2.01 3.02 1.48 0.99 3.75 0.99 2.49 0 3.96-1.05 1.48-1.04 1.48-2.49 0-1.27-0.9-2.09-0.9-0.82-2.78-1.22l-4.4-1q-3.66-0.82-5.44-2.63-1.78-1.8-1.78-4.62 0-2.34 1.31-4.1 1.31-1.76 3.59-2.73 2.27-0.97 5.25-0.97 2.83 0 4.85 0.82 2.01 0.82 3.27 2.3 1.25 1.47 1.79 3.42l-4.62 1.01q-0.49-1.39-1.71-2.43-1.22-1.04-3.54-1.04-2.13 0-3.56 0.96-1.43 0.96-1.43 2.44 0 1.31 0.95 2.12 0.95 0.81 3.1 1.3l4.22 0.93q3.64 0.83 5.39 2.58 1.76 1.76 1.76 4.5 0 2.39-1.37 4.23-1.37 1.84-3.8 2.89-2.42 1.04-5.63 1.04z"/>
			<path id="&lt;Compound Path&gt;" class="s2" d="m1215.42 65.87q-1.33 0-2.28-0.9-0.95-0.91-0.95-2.15 0-1.29 0.95-2.18 0.95-0.89 2.28-0.89 1.34 0 2.3 0.89 0.96 0.89 0.96 2.18 0 1.27-0.96 2.16-0.96 0.89-2.3 0.89zm-2.6 30.21v-26.2h5.16v26.2z"/>
			<path id="&lt;Compound Path&gt;" fill-rule="evenodd" class="s2" d="m1235.86 106.44q-3.02 0-5.25-0.77-2.23-0.78-3.67-2.07-1.44-1.29-2.19-2.86l4.31-2.03q0.47 0.75 1.26 1.58 0.78 0.83 2.12 1.42 1.33 0.58 3.42 0.58 3 0 4.86-1.42 1.87-1.41 1.87-4.44v-5.11h-0.45q-0.47 0.87-1.3 1.88-0.83 1.01-2.32 1.74-1.49 0.74-3.88 0.74-3.09 0-5.57-1.45-2.47-1.45-3.92-4.31-1.45-2.86-1.45-7.04 0-4.17 1.44-7.16 1.44-2.98 3.93-4.58 2.5-1.59 5.64-1.59 2.41 0 3.93 0.8 1.51 0.79 2.36 1.88 0.86 1.09 1.3 1.91h0.38v-4.26h5.04v26.58q0 3.44-1.56 5.66-1.56 2.21-4.24 3.26-2.69 1.06-6.06 1.06zm-0.02-15.05q2.2 0 3.71-1.02 1.51-1.02 2.29-2.95 0.77-1.93 0.77-4.61 0-2.64-0.77-4.64-0.78-1.99-2.29-3.11-1.51-1.13-3.71-1.13-2.28 0-3.8 1.19-1.52 1.18-2.3 3.18-0.77 2.01-0.77 4.51 0 2.56 0.77 4.49 0.78 1.94 2.31 3.01 1.54 1.08 3.79 1.08z"/>
			<path id="&lt;Compound Path&gt;" class="s2" d="m1259.81 80.56v15.52h-5.15v-26.2h4.92l0.04 6.42h-0.53q1.14-3.52 3.32-5.13 2.18-1.62 5.28-1.62 2.67 0 4.66 1.12 1.99 1.13 3.12 3.32 1.12 2.19 1.12 5.45v16.64h-5.15v-16.01q0-2.83-1.48-4.43-1.48-1.59-4.05-1.59-1.74 0-3.12 0.76-1.38 0.76-2.18 2.22-0.8 1.45-0.8 3.53z"/>
		</g>
		<g id="&lt;Group&gt;">
			<g id="&lt;Group&gt;">
				<path id="&lt;Compound Path&gt;" class="s15" d="m338.4 775.78l-23.27 44.82v25.5h-11.54v-25.5l-23.37-44.82h12.85l16.29 34.5 16.29-34.5z"/>
				<path id="&lt;Compound Path&gt;" fill-rule="evenodd" class="s15" d="m353.38 843.42q-6.38-3.59-10.02-10.12-3.64-6.52-3.64-15.13-0.01-8.49 3.74-15.07 3.74-6.58 10.22-10.12 6.47-3.54 14.47-3.54 7.99 0 14.47 3.54 6.47 3.54 10.22 10.12 3.74 6.58 3.74 15.07 0 8.5-3.84 15.08-3.85 6.58-10.48 10.17-6.62 3.6-14.62 3.59-7.89 0.01-14.26-3.59zm22.61-8.55q3.9-2.12 6.33-6.37 2.42-4.25 2.42-10.33 0-6.07-2.32-10.26-2.33-4.2-6.18-6.33-3.84-2.12-8.29-2.12-4.46 0-8.25 2.12-3.8 2.13-6.02 6.33-2.23 4.19-2.23 10.26 0 9.01 4.61 13.92 4.6 4.91 11.58 4.91 4.45 0 8.35-2.13z"/>
				<path id="&lt;Compound Path&gt;" class="s15" d="m458.51 790.35v55.75h-11.54v-6.57q-2.73 3.44-7.13 5.41-4.4 1.97-9.36 1.97-6.58 0-11.79-2.73-5.21-2.73-8.2-8.09-2.98-5.37-2.98-12.96v-32.78h11.43v31.06q0 7.49 3.75 11.49 3.74 4 10.22 4 6.47 0 10.27-4 3.79-4 3.79-11.49v-31.06z"/>
				<path id="&lt;Compound Path&gt;" class="s15" d="m489.93 791.82q4.2-2.38 9.96-2.38v11.94h-2.93q-6.78 0-10.27 3.44-3.49 3.44-3.49 11.94v29.34h-11.54v-55.75h11.54v8.09q2.53-4.25 6.73-6.62z"/>
				<path id="&lt;Compound Path&gt;" fill-rule="evenodd" class="s15" d="m579.48 780.08q8.44 4.3 13.05 12.34 4.6 8.05 4.6 18.77 0 10.73-4.6 18.62-4.61 7.89-13.05 12.09-8.45 4.2-19.68 4.2h-22.97v-70.32h22.97q11.23 0 19.68 4.3zm-0.76 49.93q6.57-6.67 6.57-18.82 0-12.24-6.57-19.12-6.58-6.88-18.92-6.88h-11.44v51.5h11.44q12.34 0 18.92-6.68z"/>
				<path id="&lt;Compound Path&gt;" fill-rule="evenodd" class="s15" d="m610.24 803.1q3.49-6.48 9.51-10.07 6.02-3.59 13.31-3.59 6.57 0 11.48 2.58 4.91 2.58 7.84 6.42v-8.09h11.64v55.75h-11.64v-8.29q-2.93 3.94-7.99 6.57-5.06 2.63-11.54 2.63-7.18 0.01-13.15-3.69-5.97-3.69-9.46-10.32-3.49-6.63-3.49-15.03 0-8.4 3.49-14.87zm39.76 5.06q-2.37-4.25-6.22-6.48-3.84-2.22-8.3-2.22-4.45 0-8.29 2.17-3.85 2.18-6.23 6.37-2.37 4.21-2.37 9.97 0 5.77 2.37 10.12 2.38 4.35 6.28 6.63 3.89 2.28 8.24 2.28 4.46 0 8.3-2.23 3.85-2.22 6.22-6.53 2.38-4.3 2.38-10.07 0-5.76-2.38-10.01z"/>
				<path id="&lt;Compound Path&gt;" class="s15" d="m679.8 780.84q-2.12-2.13-2.12-5.26 0-3.14 2.12-5.27 2.13-2.12 5.27-2.12 3.03 0 5.16 2.12 2.12 2.13 2.12 5.27 0 3.13-2.12 5.26-2.13 2.12-5.16 2.12-3.14 0-5.27-2.12zm10.93 9.51v55.75h-11.53v-55.75z"/>
				<path id="&lt;Compound Path&gt;" class="s15" d="m717.45 771.22v74.88h-11.54v-74.88z"/>
				<path id="&lt;Compound Path&gt;" class="s15" d="m786.86 790.35l-34.2 81.96h-11.94l11.33-27.12-21.96-54.84h12.85l15.69 42.5 16.29-42.5z"/>
				<path id="&lt;Compound Path&gt;" class="s15" d="m822.83 792.27q4.81-8.2 13.05-12.8 8.25-4.6 18.07-4.6 11.23 0 19.98 5.51 8.75 5.52 12.7 15.63h-13.86q-2.74-5.56-7.59-8.29-4.86-2.74-11.23-2.73-6.99 0-12.45 3.13-5.47 3.14-8.55 9.01-3.09 5.87-3.09 13.66 0 7.79 3.09 13.66 3.08 5.87 8.55 9.05 5.46 3.19 12.45 3.19 6.37 0 11.23-2.73 4.85-2.73 7.59-8.3h13.86q-3.95 10.12-12.7 15.59-8.75 5.46-19.98 5.46-9.92 0-18.12-4.6-8.19-4.61-13-12.8-4.81-8.2-4.81-18.52 0-10.32 4.81-18.52z"/>
				<path id="&lt;Compound Path&gt;" class="s15" d="m940.31 792.17q5.01 2.73 7.89 8.09 2.89 5.37 2.89 12.96v32.88h-11.44v-31.16q0-7.49-3.74-11.49-3.75-3.99-10.22-3.99-6.48 0-10.27 3.99-3.8 4-3.8 11.49v31.16h-11.53v-74.88h11.53v25.61q2.94-3.55 7.44-5.47 4.5-1.92 9.87-1.92 6.37 0 11.38 2.73z"/>
				<path id="&lt;Compound Path&gt;" fill-rule="evenodd" class="s15" d="m1016.45 822.53h-42.6q0.51 6.68 4.96 10.72 4.45 4.05 10.93 4.05 9.31 0 13.15-7.79h12.45q-2.53 7.69-9.16 12.6-6.63 4.9-16.44 4.9-8 0.01-14.32-3.59-6.33-3.59-9.92-10.12-3.59-6.52-3.59-15.13 0-8.59 3.49-15.12 3.49-6.53 9.82-10.07 6.32-3.54 14.52-3.54 7.89 0 14.06 3.44 6.17 3.44 9.62 9.66 3.43 6.23 3.44 14.32 0 3.14-0.41 5.67zm-11.63-9.31q-0.11-6.38-4.56-10.22-4.45-3.85-11.03-3.85-5.97 0-10.22 3.8-4.25 3.79-5.06 10.27z"/>
				<path id="&lt;Compound Path&gt;" class="s15" d="m1029.86 803.05q3.49-6.53 9.66-10.07 6.17-3.54 14.17-3.54 10.12 0 16.74 4.8 6.63 4.81 8.96 13.71h-12.45q-1.51-4.14-4.85-6.47-3.34-2.33-8.4-2.33-7.09 0-11.28 5.01-4.2 5.01-4.2 14.01 0 9.01 4.2 14.07 4.19 5.06 11.28 5.06 10.01 0 13.25-8.8h12.45q-2.43 8.5-9.11 13.5-6.68 5.01-16.59 5.01-8 0.01-14.17-3.59-6.17-3.59-9.66-10.12-3.49-6.52-3.49-15.13 0-8.59 3.49-15.12z"/>
				<path id="&lt;Compound Path&gt;" class="s15" d="m1112.98 818.28l25.7 27.82h-15.58l-20.64-23.98v23.98h-11.54v-74.88h11.54v43.52l20.24-24.39h15.98z"/>
				<path id="&lt;Compound Path&gt;" class="s15" d="m1189.78 804.62v9.71h-41.58v-9.71z"/>
				<path id="&lt;Compound Path&gt;" class="s15" d="m1217.71 775.78v70.32h-11.53v-70.32z"/>
				<path id="&lt;Compound Path&gt;" class="s15" d="m1272.81 792.17q5.21 2.73 8.14 8.09 2.94 5.37 2.94 12.96v32.88h-11.44v-31.16q0-7.49-3.74-11.49-3.75-3.99-10.22-3.99-6.48 0-10.27 3.99-3.8 4-3.8 11.49v31.16h-11.53v-55.75h11.53v6.37q2.84-3.44 7.24-5.36 4.4-1.92 9.36-1.92 6.58 0 11.79 2.73z"/>
				<path id="&lt;Compound Path&gt;" fill-rule="evenodd" class="s15" d="m1372.12 815.95q3.95 4.96 3.95 11.23 0 5.36-2.78 9.66-2.79 4.31-8.05 6.78-5.26 2.48-12.24 2.48h-28.13v-70.32h26.81q7.19 0 12.35 2.43 5.16 2.43 7.79 6.52 2.63 4.1 2.63 9.16 0 6.07-3.24 10.12-3.24 4.05-8.7 5.97 5.67 1.01 9.61 5.97zm-35.72-10.63h14.27q5.67 0 8.85-2.58 3.19-2.58 3.19-7.43 0-4.76-3.19-7.44-3.18-2.68-8.85-2.68h-14.27zm24.79 28.53q3.34-2.83 3.34-7.89 0-5.16-3.54-8.19-3.54-3.04-9.41-3.04h-15.18v21.96h15.59q5.86 0 9.2-2.84z"/>
				<path id="&lt;Compound Path&gt;" class="s15" d="m1439.11 790.35v55.75h-11.54v-6.57q-2.73 3.44-7.13 5.41-4.4 1.97-9.36 1.97-6.58 0-11.79-2.73-5.21-2.73-8.2-8.09-2.98-5.37-2.98-12.96v-32.78h11.43v31.06q0 7.49 3.75 11.49 3.74 4 10.22 4 6.47 0 10.27-4 3.79-4 3.79-11.49v-31.06z"/>
				<path id="&lt;Compound Path&gt;" fill-rule="evenodd" class="s15" d="m1453.93 803.1q3.49-6.48 9.51-10.07 6.02-3.59 13.41-3.59 5.46 0 10.78 2.38 5.31 2.37 8.44 6.32v-26.92h11.64v74.88h-11.64v-8.4q-2.83 4.05-7.84 6.68-5.01 2.63-11.48 2.63-7.29 0.01-13.31-3.69-6.02-3.69-9.51-10.32-3.49-6.63-3.49-15.03 0-8.4 3.49-14.87zm39.77 5.06q-2.38-4.25-6.23-6.48-3.84-2.22-8.29-2.22-4.46 0-8.3 2.17-3.85 2.18-6.22 6.37-2.38 4.21-2.38 9.97 0 5.77 2.38 10.12 2.37 4.35 6.27 6.63 3.89 2.28 8.25 2.28 4.45 0 8.29-2.23 3.85-2.22 6.23-6.53 2.37-4.3 2.37-10.07 0-5.76-2.37-10.01z"/>
				<path id="&lt;Compound Path&gt;" fill-rule="evenodd" class="s15" d="m1522.54 803.1q3.49-6.48 9.51-10.07 6.02-3.59 13.4-3.59 5.47 0 10.78 2.38 5.31 2.37 8.45 6.32v-26.92h11.64v74.88h-11.64v-8.4q-2.83 4.05-7.84 6.68-5.01 2.63-11.49 2.63-7.28 0.01-13.3-3.69-6.02-3.69-9.51-10.32-3.5-6.63-3.5-15.03 0-8.4 3.5-14.87zm39.76 5.06q-2.38-4.25-6.22-6.48-3.85-2.22-8.3-2.22-4.45 0-8.3 2.17-3.84 2.18-6.22 6.37-2.38 4.21-2.38 9.97 0 5.77 2.38 10.12 2.38 4.35 6.27 6.63 3.9 2.28 8.25 2.28 4.45 0 8.3-2.23 3.84-2.22 6.22-6.53 2.38-4.3 2.38-10.07 0-5.76-2.38-10.01z"/>
				<path id="&lt;Compound Path&gt;" class="s15" d="m1643.71 790.35l-34.2 81.96h-11.94l11.33-27.12-21.96-54.84h12.85l15.69 42.5 16.29-42.5z"/>
			</g>
			<g id="&lt;Group&gt;">
				<g id="&lt;Group&gt;">
					<path id="&lt;Compound Path&gt;" class="s3" d="m473.95 450.78q-10.64-13.54-27.81-21.53-17.17-7.98-33.13-7.98-8.23 0-16.68 1.45-8.47 1.46-15.24 5.57-6.78 4.11-11.37 10.64-4.59 6.52-4.59 16.68 0 8.71 3.63 14.51 3.62 5.8 10.64 10.16 7 4.35 16.68 7.98 9.67 3.63 21.77 7.5 17.41 5.81 36.27 12.81 18.86 7.02 34.34 18.63 15.48 11.61 25.64 28.77 10.16 17.18 10.15 42.81 0 29.51-10.88 51.02-10.88 21.53-29.26 35.55-18.39 14.04-42.08 20.8-23.7 6.77-48.85 6.77-36.76 0-71.1-12.82-34.34-12.81-57.07-36.51l54.17-55.14q12.57 15.48 33.13 25.88 20.56 10.4 40.87 10.4 9.19 0 17.9-1.94 8.7-1.93 15.23-6.29 6.53-4.35 10.4-11.6 3.87-7.26 3.87-17.42 0-9.67-4.84-16.44-4.84-6.77-13.78-12.34-8.95-5.55-22.25-10.15-13.31-4.59-30.23-9.92-16.45-5.31-32.16-12.57-15.72-7.26-28.05-18.62-12.34-11.36-19.83-27.57-7.5-16.2-7.5-39.42 0-28.54 11.61-48.85 11.61-20.32 30.47-33.37 18.86-13.06 42.56-19.11 23.69-6.04 47.88-6.05 29.02 0.01 59.25 10.65 30.22 10.64 52.96 31.43z"/>
					<path id="&lt;Compound Path&gt;" class="s3" d="m1062.93 704.22v-342.44h83.19v270.37h132.53v72.07z"/>
				</g>
				<g id="&lt;Group&gt;">
					<g id="&lt;Group&gt;">
						<g id="&lt;Group&gt;">
							<path id="&lt;Path&gt;" class="s7" d="m1021.31 477.86c0 129.91-105.31 235.22-235.22 235.22-129.91 0-235.22-105.31-235.22-235.22 0-129.91 105.31-235.22 235.22-235.22 129.91 0 235.22 105.31 235.22 235.22z"/>
						</g>
						<path id="&lt;Path&gt;" class="s8" d="m1021.31 477.86c0-11.39-0.82-22.58-2.39-33.53l-103.07-103.07-266.22 266.22 103.26 103.26c10.84 1.53 21.93 2.34 33.2 2.34 129.91 0 235.22-105.31 235.22-235.22z"/>
						<path id="&lt;Path&gt;" class="s9" d="m943.61 580.77c-56.84 87-173.44 111.44-260.43 54.61-87-56.84-111.45-173.44-54.61-260.43 56.84-87 173.44-111.45 260.43-54.61 87 56.84 111.44 173.44 54.61 260.43z"/>
						<g id="&lt;Group&gt;">
							<path id="&lt;Path&gt;" class="s6" d="m768.22 432.7c0 27.51-22.3 49.81-49.81 49.81-27.51 0-49.81-22.3-49.81-49.81 0-27.51 22.3-49.8 49.81-49.8 27.51 0 49.81 22.29 49.81 49.8z"/>
							<g id="&lt;Clip Group&gt;" clip-path="url(#cp3)">
								<path id="&lt;Path&gt;" class="s10" d="m716.31 430.17c0 18.24-14.79 33.03-33.03 33.03-18.25 0-33.04-14.79-33.04-33.03 0-18.25 14.79-33.04 33.04-33.04 18.24 0 33.03 14.79 33.03 33.04z"/>
							</g>
							<path id="&lt;Path&gt;" class="s6" d="m903.54 432.7c0 27.51-22.3 49.81-49.81 49.81-27.51 0-49.8-22.3-49.8-49.81 0-27.51 22.29-49.8 49.8-49.8 27.51 0 49.81 22.29 49.81 49.8z"/>
							<g id="&lt;Clip Group&gt;" clip-path="url(#cp4)">
								<path id="&lt;Path&gt;" class="s10" d="m850.63 430.17c0 18.24-14.79 33.03-33.03 33.03-18.25 0-33.04-14.79-33.04-33.03 0-18.25 14.79-33.04 33.04-33.04 18.24 0 33.03 14.79 33.03 33.04z"/>
							</g>
						</g>
						<path id="&lt;Path&gt;" class="s11" d="m634.13 378.65c56.59-86.61 172.42-111.21 259.29-55.33q-2.18-1.51-4.42-2.98c-86.99-56.84-203.59-32.39-260.43 54.61-56.84 86.99-32.39 203.59 54.6 260.43q0.58 0.36 1.15 0.72c-83.39-57.85-106.05-171.94-50.19-257.45z"/>
						<path id="&lt;Path&gt;" class="s12" d="m921.64 347.31c59.58 61.76 70.89 158.58 21.97 233.46-56.84 87-173.44 111.44-260.43 54.61-10.34-6.75-19.77-14.35-28.31-22.64 9.63 9.98 20.53 19.05 32.63 26.96 87 56.84 203.6 32.39 260.43-54.6 50.09-76.66 37.04-176.31-26.29-237.79z"/>
						<path id="&lt;Path&gt;" class="s13" d="m563.28 488.5c0-129.91 105.31-235.22 235.22-235.22 55.5 0 106.5 19.23 146.73 51.38-41.89-38.51-97.76-62.02-159.14-62.02-129.91 0-235.22 105.31-235.22 235.22 0 74.41 34.56 140.74 88.49 183.84-46.76-42.99-76.08-104.67-76.08-173.2z"/>
					</g>
				</g>
				<g id="&lt;Group&gt;">
					<path id="&lt;Path&gt;" class="s14" d="m1293.36 536.89c2.65 100.13 85.96 179.15 186.08 176.5 100.12-2.65 179.14-85.96 176.5-186.08-2.65-100.12-85.96-179.14-186.08-176.5-100.13 2.65-179.15 85.96-176.5 186.08z"/>
					<path id="&lt;Path&gt;" class="s3" d="m1474.94 543.16c5.87-0.16 10.5-5.04 10.35-10.91l-3.92-148.4c-0.16-5.87-5.04-10.51-10.91-10.35-5.88 0.15-10.51 5.04-10.35 10.91l3.92 148.4c0.15 5.87 5.04 10.5 10.91 10.35z"/>
					<path id="&lt;Path&gt;" class="s3" d="m1465.79 526.56c-3.28 4.87-2 11.48 2.87 14.76l103.33 69.72c4.87 3.29 11.48 2.01 14.77-2.86 3.28-4.87 2-11.48-2.87-14.77l-103.33-69.72c-4.87-3.28-11.48-2-14.77 2.87z"/>
					<path id="&lt;Path&gt;" class="s3" d="m1447.63 533.25c0.4 14.92 12.81 26.69 27.73 26.3 14.91-0.4 26.69-12.81 26.29-27.73-0.39-14.91-12.8-26.69-27.72-26.29-14.92 0.39-26.69 12.8-26.3 27.72z"/>
					<path id="&lt;Path&gt;" class="s6" d="m1463.39 532.84c0.17 6.21 5.34 11.11 11.55 10.95 6.21-0.17 11.12-5.34 10.95-11.55-0.16-6.21-5.33-11.12-11.55-10.95-6.21 0.16-11.11 5.33-10.95 11.55z"/>
				</g>
			</g>
		</g>
		<path id="&lt;Path&gt;" class="s3" d="m-275.11-91.33h-1920v-1080h1920z"/>
		<g id="&lt;Group&gt;">
			<path id="&lt;Compound Path&gt;" class="s4" d="m-1702.93-1068.88q-3.91 0-6.79-1.24-2.89-1.24-4.52-3.55-1.62-2.31-1.79-5.5h5.37q0.16 1.9 1.23 3.14 1.07 1.24 2.78 1.85 1.71 0.61 3.7 0.61 2.23 0 3.95-0.69 1.72-0.69 2.73-1.97 1.01-1.27 1.01-2.96 0-1.53-0.88-2.5-0.88-0.97-2.37-1.62-1.49-0.64-3.39-1.13l-4.07-1.13q-4.29-1.15-6.7-3.4-2.4-2.25-2.4-5.83 0-3.03 1.63-5.29 1.63-2.26 4.43-3.51 2.8-1.26 6.32-1.26 3.58 0 6.31 1.26 2.73 1.25 4.29 3.43 1.56 2.18 1.63 4.97h-5.2q-0.26-2.39-2.22-3.7-1.95-1.32-4.93-1.32-2.11 0-3.67 0.66-1.56 0.66-2.41 1.82-0.86 1.16-0.86 2.63 0 1.67 1.02 2.69 1.02 1.02 2.49 1.61 1.46 0.6 2.8 0.95l3.4 0.89q1.66 0.43 3.43 1.14 1.77 0.72 3.27 1.85 1.5 1.14 2.42 2.82 0.93 1.67 0.93 4.04 0 2.95-1.52 5.27-1.53 2.32-4.42 3.65-2.9 1.32-7 1.32z"/>
			<path id="&lt;Compound Path&gt;" fill-rule="evenodd" class="s4" d="m-1669.08-1069q-4.53 0-8.1-2.14-3.58-2.15-5.63-6.17-2.05-4.02-2.05-9.59 0-5.6 2.05-9.62 2.05-4.02 5.63-6.18 3.57-2.16 8.1-2.16 4.52 0 8.07 2.16 3.55 2.16 5.6 6.18 2.05 4.02 2.05 9.62 0 5.57-2.05 9.59-2.05 4.02-5.6 6.17-3.55 2.14-8.07 2.14zm0-4.87q2.97 0 5.33-1.49 2.35-1.49 3.73-4.41 1.37-2.91 1.37-7.13 0-4.27-1.37-7.19-1.38-2.91-3.73-4.4-2.36-1.49-5.33-1.49-3 0-5.37 1.5-2.37 1.5-3.74 4.42-1.37 2.91-1.37 7.16 0 4.22 1.37 7.12 1.37 2.91 3.74 4.41 2.37 1.5 5.37 1.5z"/>
			<path id="&lt;Compound Path&gt;" class="s4" d="m-1646.84-1069.47v-34.92h5.34v30.33h15.82v4.59z"/>
			<path id="&lt;Compound Path&gt;" fill-rule="evenodd" class="s4" d="m-1606.51-1069q-4.52 0-8.09-2.14-3.58-2.15-5.63-6.17-2.05-4.02-2.05-9.59 0-5.6 2.05-9.62 2.05-4.02 5.63-6.18 3.57-2.16 8.09-2.16 4.53 0 8.08 2.16 3.55 2.16 5.6 6.18 2.05 4.02 2.05 9.62 0 5.57-2.05 9.59-2.05 4.02-5.6 6.17-3.55 2.14-8.08 2.14zm0-4.87q2.98 0 5.34-1.49 2.35-1.49 3.72-4.41 1.37-2.91 1.37-7.13 0-4.27-1.37-7.19-1.37-2.91-3.72-4.4-2.36-1.49-5.34-1.49-3 0-5.36 1.5-2.37 1.5-3.74 4.42-1.37 2.91-1.37 7.16 0 4.22 1.37 7.12 1.37 2.91 3.74 4.41 2.36 1.5 5.36 1.5z"/>
			<path id="&lt;Compound Path&gt;" fill-rule="evenodd" class="s4" d="m-1571.47-1069.47v-34.92h12.87q3.73 0 6.17 1.22 2.43 1.22 3.63 3.29 1.19 2.08 1.19 4.66 0 2.18-0.79 3.66-0.8 1.49-2.15 2.4-1.35 0.9-2.96 1.32v0.35q1.75 0.07 3.42 1.11 1.66 1.05 2.75 2.93 1.09 1.89 1.09 4.59 0 2.64-1.25 4.78-1.26 2.13-3.86 3.37-2.6 1.24-6.68 1.24zm5.35-19.8h7.01q1.75 0 3.18-0.68 1.43-0.68 2.25-1.92 0.82-1.24 0.82-2.91 0-2.15-1.5-3.6-1.5-1.44-4.61-1.44h-7.15zm0 15.21h7.54q3.75 0 5.39-1.45 1.65-1.45 1.65-3.61 0-1.69-0.84-3.05-0.83-1.36-2.35-2.16-1.53-0.81-3.63-0.81h-7.76z"/>
			<path id="&lt;Compound Path&gt;" class="s4" d="m-1540.34-1069.47v-26.2h4.99v4.22h0.28q0.73-2.16 2.53-3.38 1.81-1.21 4.11-1.21 0.49 0 1.12 0.03 0.63 0.04 1.05 0.11v4.92q-0.28-0.1-1.07-0.19-0.8-0.09-1.62-0.09-1.78 0-3.21 0.75-1.43 0.75-2.23 2.07-0.79 1.33-0.79 3.06v15.91z"/>
			<path id="&lt;Compound Path&gt;" fill-rule="evenodd" class="s4" d="m-1514.65-1068.88q-2.49 0-4.5-0.93-2.02-0.92-3.19-2.7-1.17-1.78-1.17-4.36 0-2.23 0.85-3.66 0.86-1.43 2.32-2.27 1.47-0.85 3.26-1.27 1.79-0.42 3.65-0.63 2.32-0.28 3.77-0.46 1.45-0.17 2.14-0.58 0.69-0.41 0.69-1.33v-0.14q0-1.47-0.56-2.48-0.56-1.01-1.67-1.56-1.12-0.55-2.78-0.55-1.71 0-2.94 0.53-1.23 0.52-1.99 1.34-0.77 0.82-1.14 1.71l-4.85-1.26q0.89-2.35 2.55-3.77 1.67-1.43 3.82-2.09 2.16-0.66 4.46-0.66 1.59 0 3.37 0.38 1.78 0.37 3.35 1.36 1.57 0.98 2.56 2.76 0.98 1.78 0.98 4.64v17.39h-4.99v-3.58h-0.26q-0.51 1.01-1.52 1.97-1.01 0.96-2.55 1.58-1.53 0.62-3.66 0.62zm1.14-4.15q2.11 0 3.61-0.82 1.5-0.82 2.3-2.18 0.8-1.36 0.8-2.88v-3.35q-0.28 0.28-1.07 0.5-0.78 0.22-1.79 0.4-1.01 0.18-1.95 0.29-0.93 0.12-1.54 0.19-1.46 0.19-2.66 0.63-1.21 0.45-1.93 1.27-0.71 0.82-0.71 2.18 0 1.24 0.64 2.08 0.65 0.85 1.75 1.27 1.1 0.42 2.55 0.42z"/>
			<path id="&lt;Compound Path&gt;" class="s4" d="m-1489.58-1084.98v15.51h-5.15v-26.2h4.92l0.05 6.42h-0.54q1.15-3.51 3.33-5.13 2.18-1.62 5.27-1.62 2.67 0 4.66 1.13 2 1.12 3.12 3.31 1.13 2.2 1.13 5.45v16.64h-5.16v-16q0-2.84-1.48-4.43-1.47-1.6-4.05-1.6-1.74 0-3.12 0.76-1.38 0.77-2.18 2.22-0.8 1.45-0.8 3.54z"/>
			<path id="&lt;Compound Path&gt;" fill-rule="evenodd" class="s4" d="m-1456.11-1068.95q-3.18 0-5.67-1.63-2.48-1.63-3.89-4.66-1.41-3.04-1.41-7.26 0-4.26 1.43-7.29 1.43-3.02 3.92-4.61 2.48-1.6 5.62-1.6 2.44 0 3.93 0.81 1.49 0.81 2.33 1.89 0.84 1.08 1.29 1.9h0.28v-12.99h5.16v34.92h-5.02v-4.1h-0.42q-0.45 0.85-1.31 1.92-0.87 1.08-2.37 1.89-1.5 0.81-3.87 0.81zm1.13-4.38q2.2 0 3.71-1.17 1.51-1.18 2.3-3.25 0.79-2.08 0.79-4.79 0-2.75-0.78-4.77-0.77-2.03-2.28-3.17-1.52-1.13-3.74-1.13-2.28 0-3.79 1.19-1.51 1.2-2.27 3.25-0.76 2.05-0.76 4.63 0 2.6 0.77 4.68 0.77 2.09 2.3 3.31 1.52 1.22 3.75 1.22z"/>
			<path id="&lt;Compound Path&gt;" class="s4" d="m-1417.65-1104.39v34.92h-5.34v-34.92z"/>
			<path id="&lt;Compound Path&gt;" fill-rule="evenodd" class="s4" d="m-1400.56-1068.95q-3.19 0-5.67-1.63-2.49-1.63-3.89-4.66-1.41-3.04-1.41-7.26 0-4.26 1.43-7.29 1.43-3.02 3.92-4.61 2.48-1.6 5.62-1.6 2.44 0 3.93 0.81 1.48 0.81 2.33 1.89 0.84 1.08 1.29 1.9h0.28v-12.99h5.15v34.92h-5.01v-4.1h-0.42q-0.45 0.85-1.32 1.92-0.86 1.08-2.36 1.89-1.5 0.81-3.87 0.81zm1.13-4.38q2.2 0 3.71-1.17 1.51-1.18 2.3-3.25 0.78-2.08 0.78-4.79 0-2.75-0.77-4.77-0.77-2.03-2.29-3.17-1.51-1.13-3.73-1.13-2.28 0-3.79 1.19-1.51 1.2-2.27 3.25-0.77 2.05-0.77 4.63 0 2.6 0.78 4.68 0.77 2.09 2.3 3.31 1.52 1.22 3.75 1.22z"/>
			<path id="&lt;Compound Path&gt;" class="s4" d="m-1369.34-1068.93q-3.87 0-6.68-1.66-2.81-1.66-4.32-4.69-1.52-3.02-1.52-7.1 0-4.03 1.49-7.1 1.49-3.07 4.21-4.79 2.72-1.73 6.37-1.73 2.25 0 4.34 0.74 2.09 0.74 3.75 2.31 1.66 1.57 2.64 4.07 0.97 2.49 0.97 6.05v1.83h-20.88v-3.84h18.23l-2.41 1.26q0-2.41-0.75-4.25-0.75-1.84-2.22-2.87-1.46-1.03-3.67-1.03-2.18 0-3.72 1.05-1.55 1.06-2.36 2.78-0.81 1.72-0.81 3.76v2.63q0 2.69 0.93 4.56 0.92 1.86 2.59 2.81 1.66 0.95 3.87 0.95 1.45 0 2.62-0.41 1.17-0.41 2.03-1.24 0.85-0.84 1.3-2.06l4.85 1.15q-0.63 2.02-2.12 3.57-1.49 1.54-3.7 2.4-2.22 0.85-5.03 0.85z"/>
			<path id="&lt;Compound Path&gt;" class="s4" d="m-1347.29-1084.98v15.51h-5.15v-26.2h4.92l0.05 6.42h-0.54q1.15-3.51 3.33-5.13 2.17-1.62 5.27-1.62 2.67 0 4.66 1.13 1.99 1.12 3.12 3.31 1.12 2.2 1.12 5.45v16.64h-5.15v-16q0-2.84-1.48-4.43-1.47-1.6-4.05-1.6-1.74 0-3.12 0.76-1.38 0.77-2.18 2.22-0.8 1.45-0.8 3.54z"/>
			<path id="&lt;Compound Path&gt;" class="s4" d="m-1312.36-1095.67v4.2h-14.21v-4.2zm-10.38-6.23h5.16v25.36q0 1.57 0.66 2.3 0.67 0.74 2.2 0.74 0.39 0 1.05-0.09 0.66-0.09 1.12-0.19l0.92 4.13q-0.82 0.28-1.76 0.41-0.94 0.13-1.85 0.13-3.56 0-5.53-1.84-1.97-1.84-1.97-5.17z"/>
			<path id="&lt;Compound Path&gt;" class="s4" d="m-1304.63-1099.68q-1.34 0-2.29-0.9-0.94-0.9-0.94-2.14 0-1.29 0.94-2.18 0.95-0.89 2.29-0.89 1.34 0 2.3 0.89 0.96 0.89 0.96 2.18 0 1.26-0.96 2.15-0.96 0.89-2.3 0.89zm-2.6 30.21v-26.2h5.15v26.2z"/>
			<path id="&lt;Compound Path&gt;" class="s4" d="m-1283.93-1095.67v4.2h-14.21v-4.2zm-10.38-6.23h5.16v25.36q0 1.57 0.66 2.3 0.67 0.74 2.19 0.74 0.4 0 1.06-0.09 0.66-0.09 1.12-0.19l0.92 4.13q-0.82 0.28-1.76 0.41-0.94 0.13-1.85 0.13-3.56 0-5.53-1.84-1.97-1.84-1.97-5.17z"/>
			<path id="&lt;Compound Path&gt;" class="s4" d="m-1278.17-1060.04l1.27-4.2 0.58 0.14q1.34 0.35 2.4 0.19 1.07-0.17 1.86-1 0.78-0.83 1.25-2.52l0.56-1.92-9.96-26.32h5.58l5.18 14.88q0.87 2.49 1.44 4.95 0.58 2.46 1.25 4.9h-1.59q0.68-2.44 1.3-4.91 0.62-2.48 1.49-4.94l5.27-14.88h5.53l-11.39 29.84q-0.79 2.11-1.95 3.51-1.16 1.41-2.76 2.12-1.59 0.72-3.7 0.72-1.22 0-2.18-0.18-0.96-0.17-1.43-0.38z"/>
			<path id="&lt;Compound Path&gt;" class="s4" d="m-1231.67-1104.39v34.92h-5.34v-34.92zm6 34.92h-8.63v-4.68h8.35q3.96 0 6.58-1.48 2.63-1.48 3.94-4.35 1.31-2.87 1.31-6.99 0-4.11-1.3-6.94-1.3-2.84-3.87-4.31-2.56-1.48-6.38-1.48h-8.82v-4.69h9.17q5.15 0 8.83 2.09 3.68 2.08 5.65 5.99 1.97 3.9 1.97 9.34 0 5.46-1.98 9.37-1.98 3.92-5.74 6.02-3.76 2.11-9.08 2.11z"/>
			<path id="&lt;Compound Path&gt;" class="s4" d="m-1191.47-1068.93q-3.87 0-6.68-1.66-2.82-1.66-4.33-4.69-1.51-3.02-1.51-7.1 0-4.03 1.49-7.1 1.49-3.07 4.21-4.79 2.71-1.73 6.37-1.73 2.25 0 4.34 0.74 2.08 0.74 3.75 2.31 1.66 1.57 2.63 4.07 0.98 2.49 0.98 6.05v1.83h-20.89v-3.84h18.24l-2.42 1.26q0-2.41-0.75-4.25-0.75-1.84-2.21-2.87-1.47-1.03-3.67-1.03-2.18 0-3.73 1.05-1.54 1.06-2.35 2.78-0.81 1.72-0.81 3.76v2.63q0 2.69 0.93 4.56 0.92 1.86 2.59 2.81 1.66 0.95 3.86 0.95 1.46 0 2.63-0.41 1.17-0.41 2.03-1.24 0.85-0.84 1.3-2.06l4.85 1.15q-0.64 2.02-2.12 3.57-1.49 1.54-3.71 2.4-2.21 0.85-5.02 0.85z"/>
			<path id="&lt;Compound Path&gt;" class="s4" d="m-1165.18-1068.93q-2.83 0-5.05-0.82-2.21-0.82-3.63-2.42-1.42-1.61-1.89-3.93l4.85-1.01q0.54 2.04 2.02 3.03 1.48 0.98 3.75 0.98 2.48 0 3.96-1.04 1.48-1.04 1.48-2.5 0-1.26-0.9-2.08-0.91-0.82-2.78-1.22l-4.41-1.01q-3.65-0.82-5.44-2.63-1.78-1.8-1.78-4.61 0-2.35 1.32-4.1 1.31-1.76 3.58-2.73 2.27-0.98 5.25-0.98 2.84 0 4.85 0.82 2.02 0.82 3.27 2.3 1.26 1.48 1.8 3.42l-4.62 1.01q-0.49-1.38-1.71-2.43-1.22-1.04-3.54-1.04-2.13 0-3.56 0.96-1.43 0.96-1.43 2.44 0 1.31 0.95 2.12 0.94 0.81 3.1 1.3l4.22 0.94q3.63 0.82 5.39 2.58 1.76 1.75 1.76 4.5 0 2.39-1.37 4.23-1.37 1.84-3.8 2.88-2.43 1.04-5.64 1.04z"/>
			<path id="&lt;Compound Path&gt;" class="s4" d="m-1146.12-1099.68q-1.34 0-2.29-0.9-0.95-0.9-0.95-2.14 0-1.29 0.95-2.18 0.95-0.89 2.29-0.89 1.33 0 2.29 0.89 0.97 0.89 0.97 2.18 0 1.26-0.97 2.15-0.96 0.89-2.29 0.89zm-2.6 30.21v-26.2h5.15v26.2z"/>
			<path id="&lt;Compound Path&gt;" fill-rule="evenodd" class="s4" d="m-1125.68-1059.11q-3.03 0-5.25-0.77-2.23-0.77-3.67-2.06-1.44-1.29-2.19-2.86l4.31-2.04q0.47 0.75 1.25 1.58 0.79 0.83 2.12 1.42 1.34 0.59 3.43 0.59 3 0 4.86-1.42 1.86-1.42 1.86-4.44v-5.11h-0.44q-0.47 0.86-1.3 1.87-0.84 1.01-2.32 1.75-1.49 0.74-3.88 0.74-3.1 0-5.57-1.46-2.47-1.45-3.93-4.31-1.45-2.86-1.45-7.03 0-4.17 1.44-7.16 1.44-2.99 3.94-4.58 2.5-1.6 5.64-1.6 2.41 0 3.92 0.8 1.51 0.8 2.37 1.89 0.86 1.09 1.3 1.91h0.38v-4.27h5.03v26.58q0 3.44-1.55 5.66-1.56 2.21-4.25 3.27-2.68 1.05-6.05 1.05zm-0.03-15.04q2.2 0 3.72-1.02 1.51-1.02 2.28-2.96 0.78-1.93 0.78-4.6 0-2.65-0.78-4.64-0.77-1.99-2.28-3.12-1.52-1.12-3.72-1.12-2.27 0-3.8 1.18-1.52 1.18-2.29 3.19-0.78 2-0.78 4.51 0 2.55 0.78 4.49 0.77 1.93 2.31 3.01 1.53 1.08 3.78 1.08z"/>
			<path id="&lt;Compound Path&gt;" class="s4" d="m-1101.73-1084.98v15.51h-5.16v-26.2h4.92l0.05 6.42h-0.54q1.15-3.51 3.33-5.13 2.18-1.62 5.27-1.62 2.68 0 4.67 1.13 1.99 1.12 3.11 3.31 1.13 2.2 1.13 5.45v16.64h-5.16v-16q0-2.84-1.47-4.43-1.48-1.6-4.06-1.6-1.73 0-3.12 0.76-1.38 0.77-2.17 2.22-0.8 1.45-0.8 3.54z"/>
			<path id="&lt;Compound Path&gt;" class="s4" d="m-1058.02-1069.47l-9.47-34.92h5.63l5.03 20.02q0.47 1.85 0.87 3.84 0.4 1.99 0.79 4.03 0.38 2.04 0.74 4.08h-0.8q0.37-2.04 0.77-4.08 0.4-2.04 0.82-4.03 0.42-1.99 0.92-3.84l5.18-20.02h5.86l5.13 20.02q0.49 1.85 0.91 3.84 0.42 1.99 0.83 4.03 0.41 2.04 0.79 4.08h-0.84q0.37-2.04 0.75-4.08 0.37-2.04 0.8-4.03 0.44-1.99 0.86-3.84l5.04-20.02h5.67l-9.52 34.92h-6.16l-5.55-20.69q-0.64-2.44-1.18-5.3-0.53-2.86-1.1-6.28h1.22q-0.58 3.28-1.06 6.07-0.49 2.79-1.21 5.51l-5.53 20.69z"/>
			<path id="&lt;Compound Path&gt;" class="s4" d="m-1014.47-1099.68q-1.34 0-2.29-0.9-0.95-0.9-0.95-2.14 0-1.29 0.95-2.18 0.95-0.89 2.29-0.89 1.33 0 2.29 0.89 0.96 0.89 0.96 2.18 0 1.26-0.96 2.15-0.96 0.89-2.29 0.89zm-2.61 30.21v-26.2h5.16v26.2z"/>
			<path id="&lt;Compound Path&gt;" class="s4" d="m-993.78-1095.67v4.2h-14.2v-4.2zm-10.38-6.23h5.15v25.36q0 1.57 0.67 2.3 0.67 0.74 2.19 0.74 0.4 0 1.06-0.09 0.65-0.09 1.12-0.19l0.91 4.13q-0.82 0.28-1.75 0.41-0.94 0.13-1.85 0.13-3.57 0-5.54-1.84-1.96-1.84-1.96-5.17z"/>
			<path id="&lt;Compound Path&gt;" class="s4" d="m-983.44-1084.98v15.51h-5.16v-34.92h5.11v15.14h-0.68q1.15-3.51 3.33-5.13 2.18-1.62 5.27-1.62 2.67 0 4.68 1.13 2 1.12 3.12 3.31 1.11 2.2 1.11 5.45v16.64h-5.16v-16q0-2.84-1.47-4.43-1.48-1.6-4.06-1.6-1.73 0-3.12 0.76-1.38 0.77-2.18 2.22-0.79 1.45-0.79 3.54z"/>
			<path id="&lt;Compound Path&gt;" fill-rule="evenodd" class="s4" d="m-948.71-1068.93q-3.68 0-6.43-1.68-2.76-1.69-4.28-4.74-1.52-3.05-1.52-7.08 0-4.07 1.52-7.13 1.52-3.06 4.28-4.75 2.75-1.69 6.43-1.69 3.7 0 6.46 1.69 2.75 1.69 4.28 4.75 1.52 3.06 1.52 7.13 0 4.03-1.52 7.08-1.53 3.05-4.28 4.74-2.76 1.68-6.46 1.68zm0-4.36q2.39 0 3.95-1.25 1.56-1.25 2.32-3.33 0.76-2.07 0.76-4.56 0-2.5-0.76-4.6-0.76-2.1-2.32-3.35-1.56-1.26-3.95-1.26-2.37 0-3.91 1.26-1.55 1.25-2.31 3.34-0.76 2.08-0.76 4.61 0 2.49 0.76 4.56 0.76 2.08 2.31 3.33 1.54 1.25 3.91 1.25z"/>
			<path id="&lt;Compound Path&gt;" class="s4" d="m-921.8-1069.14q-2.67 0-4.69-1.12-2.02-1.13-3.13-3.33-1.11-2.2-1.11-5.44v-16.64h5.15v16.01q0 2.83 1.49 4.43 1.49 1.59 4.05 1.59 1.75 0 3.12-0.76 1.38-0.76 2.17-2.23 0.8-1.46 0.8-3.52v-15.52h5.16v26.2h-4.93l-0.02-6.42h0.49q-1.15 3.56-3.35 5.16-2.2 1.59-5.2 1.59z"/>
			<path id="&lt;Compound Path&gt;" class="s4" d="m-890.65-1095.67v4.2h-14.21v-4.2zm-10.38-6.23h5.16v25.36q0 1.57 0.66 2.3 0.67 0.74 2.2 0.74 0.39 0 1.05-0.09 0.66-0.09 1.13-0.19l0.91 4.13q-0.82 0.28-1.76 0.41-0.94 0.13-1.85 0.13-3.56 0-5.53-1.84-1.97-1.84-1.97-5.17z"/>
			<path id="&lt;Compound Path&gt;" class="s4" d="m-866.98-1104.39v34.92h-5.35v-34.92z"/>
			<path id="&lt;Compound Path&gt;" class="s4" d="m-848.63-1068.93q-3.7 0-6.45-1.68-2.74-1.69-4.26-4.74-1.52-3.05-1.52-7.08 0-4.07 1.52-7.13 1.52-3.06 4.26-4.75 2.75-1.69 6.45-1.69 2.04 0 3.82 0.53 1.78 0.53 3.22 1.52 1.44 1 2.44 2.44 1 1.44 1.49 3.25l-4.9 1.17q-0.26-1.01-0.8-1.84-0.54-0.83-1.3-1.44-0.76-0.61-1.76-0.94-0.99-0.33-2.19-0.33-2.36 0-3.92 1.26-1.56 1.25-2.32 3.34-0.76 2.08-0.76 4.61 0 2.51 0.76 4.59 0.76 2.07 2.32 3.31 1.56 1.24 3.92 1.24 1.22 0 2.23-0.34 1.01-0.34 1.8-0.96 0.8-0.62 1.34-1.5 0.54-0.88 0.77-1.93l4.88 1.17q-0.47 1.85-1.48 3.32-1.01 1.46-2.45 2.49-1.44 1.04-3.24 1.57-1.81 0.54-3.87 0.54z"/>
			<path id="&lt;Compound Path&gt;" fill-rule="evenodd" class="s4" d="m-820.93-1068.93q-3.68 0-6.43-1.68-2.75-1.69-4.28-4.74-1.52-3.05-1.52-7.08 0-4.07 1.52-7.13 1.53-3.06 4.28-4.75 2.75-1.69 6.43-1.69 3.71 0 6.46 1.69 2.75 1.69 4.28 4.75 1.52 3.06 1.52 7.13 0 4.03-1.52 7.08-1.53 3.05-4.28 4.74-2.75 1.68-6.46 1.68zm0-4.36q2.39 0 3.95-1.25 1.56-1.25 2.32-3.33 0.76-2.07 0.76-4.56 0-2.5-0.76-4.6-0.76-2.1-2.32-3.35-1.56-1.26-3.95-1.26-2.36 0-3.91 1.26-1.55 1.25-2.31 3.34-0.76 2.08-0.76 4.61 0 2.49 0.76 4.56 0.76 2.08 2.31 3.33 1.55 1.25 3.91 1.25z"/>
			<path id="&lt;Compound Path&gt;" class="s4" d="m-797.79-1084.98v15.51h-5.16v-26.2h4.92l0.05 6.42h-0.54q1.15-3.51 3.33-5.13 2.18-1.62 5.27-1.62 2.67 0 4.66 1.13 2 1.12 3.12 3.31 1.13 2.2 1.13 5.45v16.64h-5.16v-16q0-2.84-1.48-4.43-1.47-1.6-4.05-1.6-1.73 0-3.12 0.76-1.38 0.77-2.18 2.22-0.79 1.45-0.79 3.54z"/>
			<path id="&lt;Compound Path&gt;" class="s4" d="m-764.68-1068.93q-2.83 0-5.05-0.82-2.21-0.82-3.63-2.42-1.42-1.61-1.89-3.93l4.85-1.01q0.54 2.04 2.02 3.03 1.48 0.98 3.75 0.98 2.48 0 3.96-1.04 1.48-1.04 1.48-2.5 0-1.26-0.9-2.08-0.91-0.82-2.78-1.22l-4.41-1.01q-3.65-0.82-5.44-2.63-1.78-1.8-1.78-4.61 0-2.35 1.32-4.1 1.31-1.76 3.58-2.73 2.27-0.98 5.25-0.98 2.84 0 4.85 0.82 2.02 0.82 3.27 2.3 1.26 1.48 1.8 3.42l-4.62 1.01q-0.49-1.38-1.71-2.43-1.22-1.04-3.54-1.04-2.13 0-3.56 0.96-1.43 0.96-1.43 2.44 0 1.31 0.95 2.12 0.94 0.81 3.1 1.3l4.22 0.94q3.63 0.82 5.39 2.58 1.76 1.75 1.76 4.5 0 2.39-1.37 4.23-1.37 1.84-3.8 2.88-2.43 1.04-5.64 1.04z"/>
		</g>
		<g id="&lt;Group&gt;">
			<g id="&lt;Group&gt;">
				<g id="&lt;Group&gt;">
					<path id="&lt;Compound Path&gt;" class="s6" d="m-1670.98-757.22q-10.64-13.54-27.81-21.53-17.17-7.97-33.13-7.98-8.23 0.01-16.68 1.46-8.47 1.45-15.24 5.56-6.78 4.11-11.37 10.64-4.59 6.53-4.59 16.69 0 8.7 3.63 14.5 3.62 5.81 10.64 10.16 7 4.35 16.68 7.98 9.67 3.63 21.77 7.5 17.41 5.81 36.27 12.81 18.86 7.02 34.34 18.63 15.48 11.61 25.64 28.77 10.16 17.18 10.16 42.81 0 29.51-10.89 51.03-10.88 21.52-29.26 35.54-18.39 14.04-42.08 20.8-23.7 6.77-48.85 6.77-36.76 0-71.1-12.81-34.34-12.82-57.07-36.52l54.17-55.14q12.57 15.49 33.13 25.88 20.56 10.4 40.87 10.4 9.19 0 17.9-1.94 8.7-1.93 15.23-6.29 6.53-4.35 10.4-11.6 3.87-7.26 3.87-17.42 0-9.66-4.83-16.44-4.85-6.77-13.79-12.33-8.95-5.56-22.25-10.16-13.3-4.59-30.23-9.92-16.45-5.31-32.16-12.57-15.72-7.25-28.05-18.62-12.34-11.36-19.83-27.57-7.5-16.2-7.5-39.42 0-28.53 11.61-48.85 11.61-20.31 30.47-33.37 18.86-13.06 42.56-19.11 23.69-6.04 47.88-6.04 29.02 0 59.25 10.64 30.22 10.64 52.96 31.44z"/>
					<path id="&lt;Compound Path&gt;" class="s6" d="m-1185.17-503.78v-342.44h83.19v270.37h132.53v72.07z"/>
				</g>
				<path id="&lt;Path&gt;" class="s9" d="m-1228.55-675.9c0 100.16-81.19 181.36-181.35 181.36-100.16 0-181.35-81.2-181.35-181.36 0-100.15 81.19-181.35 181.35-181.35 100.16 0 181.35 81.2 181.35 181.35z"/>
				<path id="&lt;Path&gt;" class="s14" d="m-592.1-675.9c0 100.16-81.19 181.36-181.35 181.36-100.16 0-181.35-81.2-181.35-181.36 0-100.15 81.19-181.35 181.35-181.35 100.16 0 181.35 81.2 181.35 181.35z"/>
			</g>
			<g id="&lt;Group&gt;">
				<g id="&lt;Group&gt;">
					<path id="&lt;Compound Path&gt;" class="s5" d="m-1810.08-428.1l-21.43 41.27v23.48h-10.62v-23.48l-21.52-41.27h11.83l15 31.77 15-31.77z"/>
					<path id="&lt;Compound Path&gt;" fill-rule="evenodd" class="s5" d="m-1796.29-365.82q-5.87-3.3-9.23-9.31-3.35-6.01-3.35-13.93 0-7.83 3.45-13.88 3.44-6.06 9.41-9.32 5.96-3.26 13.32-3.26 7.36 0 13.32 3.26 5.97 3.26 9.41 9.32 3.45 6.05 3.45 13.88 0 7.83-3.54 13.88-3.54 6.06-9.64 9.36-6.11 3.31-13.47 3.31-7.26 0-13.13-3.31zm20.82-7.87q3.59-1.96 5.82-5.87 2.24-3.91 2.24-9.5 0-5.59-2.14-9.46-2.15-3.86-5.69-5.82-3.54-1.96-7.64-1.96-4.1 0-7.59 1.96-3.49 1.96-5.54 5.82-2.05 3.87-2.05 9.46 0 8.29 4.24 12.81 4.24 4.52 10.66 4.52 4.1 0 7.69-1.96z"/>
					<path id="&lt;Compound Path&gt;" class="s5" d="m-1699.49-414.68v51.33h-10.62v-6.05q-2.52 3.17-6.57 4.98-4.05 1.82-8.62 1.82-6.06 0-10.85-2.52-4.8-2.51-7.55-7.45-2.75-4.94-2.75-11.93v-30.18h10.53v28.6q0 6.9 3.45 10.58 3.44 3.68 9.41 3.67 5.96 0.01 9.45-3.67 3.5-3.68 3.5-10.58v-28.6z"/>
					<path id="&lt;Compound Path&gt;" class="s5" d="m-1670.56-413.33q3.86-2.19 9.17-2.19v10.99h-2.7q-6.24 0-9.45 3.17-3.22 3.17-3.22 10.99v27.02h-10.62v-51.33h10.62v7.45q2.33-3.91 6.2-6.1z"/>
					<path id="&lt;Compound Path&gt;" fill-rule="evenodd" class="s5" d="m-1588.11-424.14q7.78 3.96 12.02 11.37 4.24 7.4 4.24 17.28 0 9.88-4.24 17.14-4.24 7.27-12.02 11.14-7.78 3.86-18.12 3.86h-21.15v-64.75h21.15q10.34 0 18.12 3.96zm-0.7 45.98q6.06-6.15 6.06-17.33 0-11.27-6.06-17.61-6.06-6.33-17.42-6.33h-10.53v47.42h10.53q11.36 0 17.42-6.15z"/>
					<path id="&lt;Compound Path&gt;" fill-rule="evenodd" class="s5" d="m-1559.79-402.94q3.22-5.97 8.76-9.27 5.54-3.31 12.25-3.31 6.06 0 10.58 2.37 4.51 2.38 7.22 5.92v-7.45h10.71v51.33h-10.71v-7.64q-2.71 3.64-7.36 6.06-4.66 2.42-10.62 2.42-6.62 0-12.12-3.4-5.49-3.4-8.71-9.5-3.21-6.1-3.21-13.84 0-7.73 3.21-13.69zm36.62 4.65q-2.19-3.91-5.73-5.96-3.54-2.05-7.64-2.05-4.1 0-7.64 2.01-3.54 2-5.73 5.87-2.19 3.86-2.19 9.17 0 5.31 2.19 9.32 2.19 4.01 5.78 6.1 3.58 2.1 7.59 2.1 4.1 0 7.64-2.05 3.54-2.05 5.73-6.01 2.19-3.96 2.19-9.27 0-5.31-2.19-9.23z"/>
					<path id="&lt;Compound Path&gt;" class="s5" d="m-1495.73-423.44q-1.96-1.96-1.96-4.85 0-2.88 1.96-4.84 1.95-1.96 4.84-1.96 2.8 0 4.75 1.96 1.96 1.96 1.96 4.84 0 2.89-1.96 4.85-1.95 1.96-4.75 1.96-2.89 0-4.84-1.96zm10.06 8.76v51.33h-10.62v-51.33z"/>
					<path id="&lt;Compound Path&gt;" class="s5" d="m-1461.08-432.29v68.94h-10.62v-68.94z"/>
					<path id="&lt;Compound Path&gt;" class="s5" d="m-1397.16-414.68l-31.49 75.46h-11l10.44-24.97-20.22-50.49h11.83l14.44 39.13 15-39.13z"/>
					<path id="&lt;Compound Path&gt;" class="s5" d="m-1364.04-412.91q4.42-7.55 12.02-11.79 7.59-4.24 16.63-4.24 10.34 0 18.4 5.08 8.06 5.08 11.69 14.4h-12.76q-2.52-5.13-6.99-7.65-4.47-2.51-10.34-2.51-6.43 0-11.46 2.89-5.04 2.89-7.88 8.29-2.84 5.4-2.84 12.58 0 7.17 2.84 12.57 2.84 5.41 7.88 8.34 5.03 2.94 11.46 2.94 5.87 0 10.34-2.52 4.47-2.51 6.99-7.64h12.76q-3.63 9.32-11.69 14.35-8.06 5.03-18.4 5.03-9.14 0-16.68-4.24-7.55-4.24-11.97-11.78-4.43-7.55-4.43-17.05 0-9.51 4.43-17.05z"/>
					<path id="&lt;Compound Path&gt;" class="s5" d="m-1255.87-413.01q4.61 2.52 7.26 7.46 2.66 4.94 2.66 11.92v30.28h-10.53v-28.69q0-6.9-3.45-10.58-3.45-3.68-9.41-3.68-5.96 0-9.45 3.68-3.5 3.68-3.5 10.58v28.69h-10.62v-68.94h10.62v23.57q2.7-3.26 6.85-5.03 4.14-1.77 9.08-1.77 5.87 0 10.49 2.51z"/>
					<path id="&lt;Compound Path&gt;" fill-rule="evenodd" class="s5" d="m-1185.77-385.05h-39.22q0.46 6.14 4.56 9.87 4.1 3.73 10.07 3.73 8.57 0 12.11-7.18h11.46q-2.33 7.08-8.43 11.6-6.11 4.52-15.14 4.52-7.36 0-13.19-3.31-5.82-3.3-9.13-9.31-3.3-6.01-3.3-13.93 0-7.92 3.21-13.93 3.21-6.01 9.04-9.27 5.82-3.26 13.37-3.26 7.26 0 12.95 3.17 5.68 3.17 8.85 8.89 3.17 5.73 3.17 13.19 0 2.89-0.38 5.22zm-10.71-8.58q-0.09-5.87-4.19-9.41-4.1-3.54-10.16-3.54-5.5 0-9.41 3.5-3.91 3.49-4.66 9.45z"/>
					<path id="&lt;Compound Path&gt;" class="s5" d="m-1173.42-402.99q3.21-6.01 8.9-9.27 5.68-3.26 13.04-3.26 9.31 0 15.42 4.42 6.1 4.43 8.24 12.63h-11.46q-1.39-3.82-4.47-5.96-3.07-2.15-7.73-2.15-6.52 0-10.39 4.62-3.87 4.61-3.87 12.9 0 8.29 3.87 12.95 3.87 4.66 10.39 4.66 9.22 0 12.2-8.11h11.46q-2.23 7.83-8.38 12.44-6.15 4.61-15.28 4.61-7.36 0-13.04-3.31-5.69-3.3-8.9-9.31-3.22-6.01-3.22-13.93 0-7.92 3.22-13.93z"/>
					<path id="&lt;Compound Path&gt;" class="s5" d="m-1096.88-388.97l23.66 25.62h-14.35l-19-22.08v22.08h-10.63v-68.94h10.63v40.06l18.63-22.45h14.72z"/>
					<path id="&lt;Compound Path&gt;" class="s5" d="m-1026.17-401.55v8.95h-38.29v-8.95z"/>
					<path id="&lt;Compound Path&gt;" class="s5" d="m-1000.46-428.1v64.75h-10.62v-64.75z"/>
					<path id="&lt;Compound Path&gt;" class="s5" d="m-949.73-413.01q4.8 2.52 7.5 7.46 2.7 4.94 2.7 11.92v30.28h-10.52v-28.69q0-6.9-3.45-10.58-3.45-3.68-9.41-3.68-5.96 0-9.46 3.68-3.49 3.68-3.49 10.58v28.69h-10.62v-51.33h10.62v5.87q2.61-3.17 6.66-4.94 4.05-1.77 8.62-1.77 6.05 0 10.85 2.51z"/>
					<path id="&lt;Compound Path&gt;" fill-rule="evenodd" class="s5" d="m-858.28-391.11q3.63 4.56 3.63 10.34 0 4.94-2.56 8.9-2.57 3.96-7.41 6.24-4.84 2.28-11.27 2.28h-25.9v-64.75h24.69q6.61 0 11.36 2.24 4.75 2.23 7.18 6.01 2.42 3.77 2.42 8.43 0 5.59-2.98 9.32-2.98 3.72-8.01 5.49 5.21 0.94 8.85 5.5zm-32.89-9.78h13.13q5.22 0 8.16-2.38 2.93-2.38 2.93-6.85 0-4.38-2.93-6.85-2.94-2.46-8.16-2.46h-13.13zm22.82 26.27q3.08-2.61 3.08-7.27 0-4.75-3.26-7.54-3.26-2.8-8.67-2.8h-13.97v20.22h14.35q5.4 0 8.47-2.61z"/>
					<path id="&lt;Compound Path&gt;" class="s5" d="m-796.61-414.68v51.33h-10.62v-6.05q-2.51 3.17-6.57 4.98-4.05 1.82-8.61 1.82-6.06 0-10.86-2.52-4.8-2.51-7.55-7.45-2.74-4.94-2.74-11.93v-30.18h10.52v28.6q0 6.9 3.45 10.58 3.45 3.68 9.41 3.67 5.96 0.01 9.46-3.67 3.49-3.68 3.49-10.58v-28.6z"/>
					<path id="&lt;Compound Path&gt;" fill-rule="evenodd" class="s5" d="m-782.96-402.94q3.22-5.97 8.76-9.27 5.54-3.31 12.34-3.31 5.04 0 9.93 2.19 4.89 2.19 7.78 5.82v-24.78h10.71v68.94h-10.71v-7.73q-2.61 3.73-7.22 6.15-4.62 2.42-10.58 2.42-6.71 0-12.25-3.4-5.54-3.4-8.76-9.5-3.21-6.1-3.21-13.84 0-7.73 3.21-13.69zm36.62 4.65q-2.19-3.91-5.73-5.96-3.54-2.05-7.64-2.05-4.1 0-7.64 2.01-3.54 2-5.73 5.87-2.19 3.86-2.19 9.17 0 5.31 2.19 9.32 2.19 4.01 5.77 6.1 3.59 2.1 7.6 2.1 4.1 0 7.64-2.05 3.54-2.05 5.73-6.01 2.19-3.96 2.19-9.27 0-5.31-2.19-9.23z"/>
					<path id="&lt;Compound Path&gt;" fill-rule="evenodd" class="s5" d="m-719.79-402.94q3.21-5.97 8.76-9.27 5.54-3.31 12.34-3.31 5.03 0 9.92 2.19 4.9 2.19 7.78 5.82v-24.78h10.72v68.94h-10.72v-7.73q-2.61 3.73-7.22 6.15-4.61 2.42-10.57 2.42-6.71 0-12.25-3.4-5.55-3.4-8.76-9.5-3.22-6.1-3.22-13.84 0-7.73 3.22-13.69zm36.61 4.65q-2.19-3.91-5.73-5.96-3.54-2.05-7.64-2.05-4.1 0-7.63 2.01-3.55 2-5.73 5.87-2.19 3.86-2.19 9.17 0 5.31 2.19 9.32 2.18 4.01 5.77 6.1 3.59 2.1 7.59 2.1 4.1 0 7.64-2.05 3.54-2.05 5.73-6.01 2.19-3.96 2.19-9.27 0-5.31-2.19-9.23z"/>
					<path id="&lt;Compound Path&gt;" class="s5" d="m-608.22-414.68l-31.49 75.46h-11l10.44-24.97-20.22-50.49h11.83l14.44 39.13 15-39.13z"/>
				</g>
			</g>
		</g>
		<g id="&lt;Group&gt;">
			<g id="&lt;Group&gt;">
				<g id="&lt;Group&gt;">
					<path id="&lt;Compound Path&gt;" class="s3" d="m-1670.98 432.05q-10.64-13.54-27.81-21.53-17.17-7.98-33.13-7.98-8.23 0-16.68 1.45-8.47 1.46-15.24 5.57-6.78 4.11-11.37 10.64-4.59 6.53-4.59 16.68 0 8.71 3.63 14.51 3.62 5.81 10.64 10.16 7 4.35 16.68 7.98 9.67 3.63 21.77 7.5 17.41 5.81 36.27 12.81 18.86 7.02 34.34 18.63 15.48 11.61 25.64 28.77 10.16 17.18 10.16 42.81 0 29.51-10.89 51.02-10.88 21.53-29.26 35.55-18.39 14.04-42.08 20.8-23.7 6.77-48.85 6.77-36.76 0-71.1-12.82-34.34-12.81-57.07-36.51l54.17-55.14q12.57 15.48 33.13 25.88 20.56 10.4 40.87 10.4 9.19 0 17.9-1.94 8.7-1.93 15.23-6.29 6.53-4.35 10.4-11.6 3.87-7.26 3.87-17.42 0-9.67-4.83-16.44-4.85-6.77-13.79-12.34-8.95-5.55-22.25-10.15-13.3-4.59-30.23-9.92-16.45-5.31-32.16-12.57-15.72-7.26-28.05-18.62-12.34-11.36-19.83-27.57-7.5-16.2-7.5-39.42 0-28.54 11.61-48.85 11.61-20.32 30.47-33.37 18.86-13.06 42.56-19.11 23.69-6.04 47.88-6.04 29.02 0 59.25 10.64 30.22 10.64 52.96 31.43z"/>
					<path id="&lt;Compound Path&gt;" class="s3" d="m-1185.17 685.49v-342.44h83.19v270.37h132.53v72.07z"/>
				</g>
				<path id="&lt;Path&gt;" class="s9" d="m-1228.55 513.37c0 100.16-81.19 181.35-181.35 181.35-100.16 0-181.35-81.19-181.35-181.35 0-100.16 81.19-181.35 181.35-181.35 100.16 0 181.35 81.19 181.35 181.35z"/>
				<path id="&lt;Path&gt;" class="s14" d="m-592.1 513.37c0 100.16-81.19 181.35-181.35 181.35-100.16 0-181.35-81.19-181.35-181.35 0-100.16 81.19-181.35 181.35-181.35 100.16 0 181.35 81.19 181.35 181.35z"/>
			</g>
			<g id="&lt;Group&gt;">
				<g id="&lt;Group&gt;">
					<path id="&lt;Compound Path&gt;" class="s15" d="m-1810.08 761.17l-21.43 41.27v23.48h-10.62v-23.48l-21.52-41.27h11.83l15 31.77 15-31.77z"/>
					<path id="&lt;Compound Path&gt;" fill-rule="evenodd" class="s15" d="m-1796.29 823.45q-5.87-3.3-9.23-9.31-3.35-6.01-3.35-13.93 0-7.83 3.45-13.88 3.44-6.06 9.41-9.32 5.96-3.26 13.32-3.26 7.36 0 13.32 3.26 5.97 3.26 9.41 9.32 3.45 6.05 3.45 13.88 0 7.82-3.54 13.88-3.54 6.06-9.64 9.36-6.11 3.31-13.47 3.31-7.26 0-13.13-3.31zm20.82-7.87q3.59-1.96 5.82-5.87 2.24-3.91 2.24-9.5 0-5.59-2.14-9.46-2.15-3.87-5.69-5.82-3.54-1.96-7.64-1.96-4.1 0-7.59 1.96-3.49 1.95-5.54 5.82-2.05 3.87-2.05 9.46 0 8.29 4.24 12.81 4.24 4.52 10.66 4.52 4.1 0 7.69-1.96z"/>
					<path id="&lt;Compound Path&gt;" class="s15" d="m-1699.49 774.59v51.33h-10.62v-6.05q-2.52 3.16-6.57 4.98-4.05 1.82-8.62 1.82-6.06 0-10.85-2.52-4.8-2.51-7.55-7.45-2.75-4.94-2.75-11.93v-30.18h10.53v28.6q0 6.89 3.45 10.57 3.44 3.68 9.41 3.68 5.96 0 9.45-3.68 3.5-3.68 3.5-10.57v-28.6z"/>
					<path id="&lt;Compound Path&gt;" class="s15" d="m-1670.56 775.94q3.86-2.19 9.17-2.19v10.99h-2.7q-6.24 0-9.45 3.17-3.22 3.17-3.22 10.99v27.02h-10.62v-51.33h10.62v7.45q2.33-3.91 6.2-6.1z"/>
					<path id="&lt;Compound Path&gt;" fill-rule="evenodd" class="s15" d="m-1588.11 765.13q7.78 3.96 12.02 11.37 4.24 7.4 4.24 17.28 0 9.88-4.24 17.14-4.24 7.27-12.02 11.14-7.78 3.86-18.12 3.86h-21.15v-64.75h21.15q10.34 0 18.12 3.96zm-0.7 45.98q6.06-6.15 6.06-17.33 0-11.27-6.06-17.61-6.06-6.34-17.42-6.34h-10.53v47.43h10.53q11.36 0 17.42-6.15z"/>
					<path id="&lt;Compound Path&gt;" fill-rule="evenodd" class="s15" d="m-1559.79 786.33q3.22-5.97 8.76-9.28 5.54-3.3 12.25-3.3 6.06 0 10.58 2.37 4.51 2.38 7.22 5.92v-7.45h10.71v51.33h-10.71v-7.64q-2.71 3.64-7.36 6.06-4.66 2.42-10.62 2.42-6.62 0-12.12-3.4-5.49-3.4-8.71-9.5-3.21-6.1-3.21-13.84 0-7.73 3.21-13.69zm36.62 4.65q-2.19-3.91-5.73-5.96-3.54-2.05-7.64-2.05-4.1 0-7.64 2-3.54 2.01-5.73 5.87-2.19 3.87-2.19 9.18 0 5.31 2.19 9.32 2.19 4 5.78 6.1 3.58 2.1 7.59 2.1 4.1 0 7.64-2.05 3.54-2.05 5.73-6.01 2.19-3.96 2.19-9.27 0-5.31-2.19-9.23z"/>
					<path id="&lt;Compound Path&gt;" class="s15" d="m-1495.73 765.83q-1.96-1.96-1.96-4.85 0-2.88 1.96-4.84 1.95-1.96 4.84-1.96 2.8 0 4.75 1.96 1.96 1.96 1.96 4.84 0 2.89-1.96 4.85-1.95 1.95-4.75 1.95-2.89 0-4.84-1.95zm10.06 8.76v51.33h-10.62v-51.33z"/>
					<path id="&lt;Compound Path&gt;" class="s15" d="m-1461.08 756.98v68.94h-10.62v-68.94z"/>
					<path id="&lt;Compound Path&gt;" class="s15" d="m-1397.16 774.59l-31.49 75.46h-11l10.44-24.97-20.22-50.49h11.83l14.44 39.13 15-39.13z"/>
					<path id="&lt;Compound Path&gt;" class="s15" d="m-1364.04 776.36q4.42-7.55 12.02-11.79 7.59-4.24 16.63-4.24 10.34 0 18.4 5.08 8.06 5.08 11.69 14.39h-12.76q-2.52-5.12-6.99-7.64-4.47-2.51-10.34-2.51-6.43 0-11.46 2.89-5.04 2.89-7.88 8.29-2.84 5.4-2.84 12.58 0 7.17 2.84 12.57 2.84 5.41 7.88 8.34 5.03 2.94 11.46 2.94 5.87 0 10.34-2.52 4.47-2.51 6.99-7.64h12.76q-3.63 9.32-11.69 14.35-8.06 5.03-18.4 5.03-9.14 0-16.68-4.24-7.55-4.24-11.97-11.78-4.43-7.55-4.43-17.05 0-9.51 4.43-17.05z"/>
					<path id="&lt;Compound Path&gt;" class="s15" d="m-1255.87 776.26q4.61 2.52 7.26 7.46 2.66 4.94 2.66 11.92v30.28h-10.53v-28.69q0-6.9-3.45-10.58-3.45-3.68-9.41-3.68-5.96 0-9.45 3.68-3.5 3.68-3.5 10.58v28.69h-10.62v-68.94h10.62v23.57q2.7-3.26 6.85-5.03 4.14-1.77 9.08-1.77 5.87 0 10.49 2.51z"/>
					<path id="&lt;Compound Path&gt;" fill-rule="evenodd" class="s15" d="m-1185.77 804.21h-39.22q0.46 6.15 4.56 9.88 4.1 3.73 10.07 3.73 8.57 0 12.11-7.18h11.46q-2.33 7.08-8.43 11.6-6.11 4.52-15.14 4.52-7.36 0-13.19-3.31-5.82-3.3-9.13-9.31-3.3-6.01-3.3-13.93 0-7.92 3.21-13.93 3.21-6.01 9.04-9.27 5.82-3.26 13.37-3.26 7.26 0 12.95 3.17 5.68 3.16 8.85 8.89 3.17 5.73 3.17 13.19 0 2.89-0.38 5.21zm-10.71-8.57q-0.09-5.87-4.19-9.41-4.1-3.54-10.16-3.54-5.5 0-9.41 3.5-3.91 3.49-4.66 9.45z"/>
					<path id="&lt;Compound Path&gt;" class="s15" d="m-1173.42 786.28q3.21-6.01 8.9-9.27 5.68-3.26 13.04-3.26 9.31 0 15.42 4.42 6.1 4.43 8.24 12.63h-11.46q-1.39-3.82-4.47-5.97-3.07-2.14-7.73-2.14-6.52 0-10.39 4.61-3.87 4.62-3.87 12.91 0 8.29 3.87 12.95 3.87 4.66 10.39 4.66 9.22 0 12.2-8.11h11.46q-2.23 7.83-8.38 12.44-6.15 4.61-15.28 4.61-7.36 0-13.04-3.31-5.69-3.3-8.9-9.31-3.22-6.01-3.22-13.93 0-7.92 3.22-13.93z"/>
					<path id="&lt;Compound Path&gt;" class="s15" d="m-1096.88 800.3l23.66 25.62h-14.35l-19-22.08v22.08h-10.63v-68.94h10.63v40.06l18.63-22.45h14.72z"/>
					<path id="&lt;Compound Path&gt;" class="s15" d="m-1026.17 787.72v8.95h-38.29v-8.95z"/>
					<path id="&lt;Compound Path&gt;" class="s15" d="m-1000.46 761.17v64.75h-10.62v-64.75z"/>
					<path id="&lt;Compound Path&gt;" class="s15" d="m-949.73 776.26q4.8 2.52 7.5 7.46 2.7 4.94 2.7 11.92v30.28h-10.52v-28.69q0-6.9-3.45-10.58-3.45-3.68-9.41-3.68-5.96 0-9.46 3.68-3.49 3.68-3.49 10.58v28.69h-10.62v-51.33h10.62v5.87q2.61-3.17 6.66-4.94 4.05-1.77 8.62-1.77 6.05 0 10.85 2.51z"/>
					<path id="&lt;Compound Path&gt;" fill-rule="evenodd" class="s15" d="m-858.28 798.16q3.63 4.56 3.63 10.34 0 4.94-2.56 8.9-2.57 3.96-7.41 6.24-4.84 2.28-11.27 2.28h-25.9v-64.75h24.69q6.61 0 11.36 2.24 4.75 2.23 7.18 6.01 2.42 3.77 2.42 8.43 0 5.59-2.98 9.31-2.98 3.73-8.01 5.5 5.21 0.93 8.85 5.5zm-32.89-9.78h13.13q5.22 0 8.16-2.38 2.93-2.38 2.93-6.85 0-4.38-2.93-6.85-2.94-2.46-8.16-2.47h-13.13zm22.82 26.28q3.08-2.61 3.08-7.27 0-4.75-3.26-7.55-3.26-2.79-8.67-2.79h-13.97v20.22h14.35q5.4 0 8.47-2.61z"/>
					<path id="&lt;Compound Path&gt;" class="s15" d="m-796.61 774.59v51.33h-10.62v-6.05q-2.51 3.16-6.57 4.98-4.05 1.82-8.61 1.82-6.06 0-10.86-2.52-4.8-2.51-7.55-7.45-2.74-4.94-2.74-11.93v-30.18h10.52v28.6q0 6.89 3.45 10.57 3.45 3.68 9.41 3.68 5.96 0 9.46-3.68 3.49-3.68 3.49-10.57v-28.6z"/>
					<path id="&lt;Compound Path&gt;" fill-rule="evenodd" class="s15" d="m-782.96 786.33q3.22-5.97 8.76-9.28 5.54-3.3 12.34-3.3 5.04 0 9.93 2.19 4.89 2.19 7.78 5.82v-24.78h10.71v68.94h-10.71v-7.73q-2.61 3.73-7.22 6.15-4.62 2.42-10.58 2.42-6.71 0-12.25-3.4-5.54-3.4-8.76-9.5-3.21-6.1-3.21-13.84 0-7.73 3.21-13.69zm36.62 4.65q-2.19-3.91-5.73-5.96-3.54-2.05-7.64-2.05-4.1 0-7.64 2-3.54 2.01-5.73 5.87-2.19 3.87-2.19 9.18 0 5.31 2.19 9.32 2.19 4 5.77 6.1 3.59 2.1 7.6 2.1 4.1 0 7.64-2.05 3.54-2.05 5.73-6.01 2.19-3.96 2.19-9.27 0-5.31-2.19-9.23z"/>
					<path id="&lt;Compound Path&gt;" fill-rule="evenodd" class="s15" d="m-719.79 786.33q3.21-5.97 8.76-9.28 5.54-3.3 12.34-3.3 5.03 0 9.92 2.19 4.9 2.19 7.78 5.82v-24.78h10.72v68.94h-10.72v-7.73q-2.61 3.73-7.22 6.15-4.61 2.42-10.57 2.42-6.71 0-12.25-3.4-5.55-3.4-8.76-9.5-3.22-6.1-3.22-13.84 0-7.73 3.22-13.69zm36.61 4.65q-2.19-3.91-5.73-5.96-3.54-2.05-7.64-2.05-4.1 0-7.63 2-3.55 2.01-5.73 5.87-2.19 3.87-2.19 9.18 0 5.31 2.19 9.32 2.18 4 5.77 6.1 3.59 2.1 7.59 2.1 4.1 0 7.64-2.05 3.54-2.05 5.73-6.01 2.19-3.96 2.19-9.27 0-5.31-2.19-9.23z"/>
					<path id="&lt;Compound Path&gt;" class="s15" d="m-608.22 774.59l-31.49 75.46h-11l10.44-24.97-20.22-50.49h11.83l14.44 39.13 15-39.13z"/>
				</g>
			</g>
		</g>
	</g>
</svg>