<?xml version="1.0" encoding="UTF-8"?>
<svg id="Layer_1" data-name="Layer 1"
xmlns="http://www.w3.org/2000/svg"
xmlns:xlink="http://www.w3.org/1999/xlink"
viewBox="0 0 1328.52 563.71">
  <defs>
    <style>
      .cls-1 {
        fill: #0cb4ab;
      }

      .cls-2 {
        fill: #002c3e;
      }

      .cls-3 {
        fill: #5a6c7d;
      }

      .cls-4 {
        fill: #b5d43c;
      }
    </style>
  </defs>
  <g>
    <g>
      <path class="cls-2" d="M223.82,122.92c-7.1-9.02-16.37-16.2-27.81-21.52-11.45-5.32-22.49-7.98-33.13-7.98-5.49,0-11.05.48-16.69,1.45-5.65.97-10.72,2.83-15.24,5.56-4.52,2.74-8.31,6.29-11.37,10.64-3.07,4.35-4.59,9.92-4.59,16.69,0,5.8,1.21,10.64,3.63,14.51,2.42,3.87,5.96,7.25,10.64,10.16,4.67,2.9,10.23,5.56,16.69,7.98,6.45,2.42,13.7,4.92,21.76,7.49,11.61,3.87,23.7,8.15,36.28,12.82,12.57,4.68,24.02,10.88,34.34,18.62,10.32,7.74,18.86,17.33,25.63,28.78,6.77,11.45,10.16,25.72,10.16,42.81,0,19.67-3.63,36.68-10.88,51.03-7.25,14.35-17.01,26.2-29.26,35.55-12.26,9.36-26.29,16.29-42.08,20.8-15.8,4.51-32.09,6.77-48.85,6.77-24.51,0-48.21-4.28-71.1-12.82-22.9-8.54-41.92-20.72-57.07-36.51l54.17-55.14c8.38,10.32,19.42,18.95,33.13,25.87,13.7,6.94,27.33,10.4,40.87,10.4,6.12,0,12.09-.64,17.89-1.94,5.8-1.29,10.88-3.39,15.24-6.29,4.35-2.9,7.82-6.77,10.4-11.61,2.58-4.84,3.87-10.64,3.87-17.41s-1.62-11.93-4.84-16.44c-3.23-4.51-7.82-8.62-13.78-12.34-5.97-3.7-13.38-7.09-22.25-10.16-8.87-3.06-18.95-6.36-30.23-9.92-10.97-3.54-21.69-7.74-32.16-12.58-10.48-4.84-19.83-11.04-28.05-18.62-8.22-7.57-14.84-16.76-19.83-27.57-5-10.8-7.5-23.94-7.5-39.42,0-19.02,3.87-35.31,11.61-48.85,7.74-13.54,17.9-24.67,30.47-33.37,12.58-8.71,26.76-15.07,42.56-19.1,15.79-4.03,31.75-6.05,47.88-6.05,19.35,0,39.09,3.55,59.25,10.64,20.15,7.1,37.8,17.58,52.96,31.44l-52.72,55.62Z"/>
      <path class="cls-2" d="M709.63,376.36V33.93h83.19v270.37h132.53v72.07h-215.71Z"/>
    </g>
   <g>
  <circle class="cls-1" cx="480.84" cy="207.21" r="181.35"/>

  <g transform="translate(480.84 207.21)">

    <!-- Eyes -->
    <ellipse cx="-60" cy="-15" rx="48" ry="40" fill="white"/>
    <ellipse cx="60" cy="-15" rx="48" ry="40" fill="white"/>

    <circle cx="-60" cy="-15" r="16" fill="#111">
      <animate attributeName="cx"
        values="-80;-40;-60;-80"
        dur="3s"
        repeatCount="indefinite"/>
      <animate attributeName="opacity"
        values="1;1;0;1"
        keyTimes="0;0.65;0.75;1"
        dur="3s"
        repeatCount="indefinite"/>
    </circle>

    <circle cx="60" cy="-15" r="16" fill="#111">
      <animate attributeName="cx"
        values="40;80;60;40"
        dur="3s"
        repeatCount="indefinite"/>
      <animate attributeName="opacity"
        values="1;1;0;1"
        keyTimes="0;0.65;0.75;1"
        dur="3s"
        repeatCount="indefinite"/>
    </circle>

    <!-- Blink -->
    <path d="M -105 -15 Q -60 30 -15 -15"
      stroke="#0F172A"
      stroke-width="10"
      fill="none"
      stroke-linecap="round"
      opacity="0">
      <animate attributeName="opacity"
        values="0;0;1;0"
        keyTimes="0;0.65;0.75;1"
        dur="3s"
        repeatCount="indefinite"/>
    </path>

    <path d="M 15 -15 Q 60 30 105 -15"
      stroke="#0F172A"
      stroke-width="10"
      fill="none"
      stroke-linecap="round"
      opacity="0">
      <animate attributeName="opacity"
        values="0;0;1;0"
        keyTimes="0;0.65;0.75;1"
        dur="3s"
        repeatCount="indefinite"/>
    </path>

  </g> 
</g>
   <g>
 <circle cx="1117.29" cy="207.21" r="181.35" fill="#b5d43c"/>

  <g transform="translate(1117.29 207.21)">

    <circle cx="0" cy="0" r="8" fill="#0F172A"/>

    <rect x="-4" y="-120" width="8" height="120" fill="#0F172A" rx="4">
      <animateTransform
        attributeName="transform"
        type="rotate"
        from="0"
        to="360"
        dur="6s"
        repeatCount="indefinite"/>
    </rect>

    <rect x="-5" y="-75" width="10" height="75" fill="#0F172A" rx="5">
      <animateTransform
        attributeName="transform"
        type="rotate"
        from="0"
        to="360"
        dur="20s"
        repeatCount="indefinite"/>
    </rect>

  </g>
</g>
  </g>
  <g>
    <path class="cls-3" d="M85.26,449.52l-21.64,41.69v23.71h-10.73v-23.71l-21.74-41.69h11.95l15.15,32.09,15.15-32.09h11.86Z"/>
    <path class="cls-3" d="M99.19,512.43c-3.95-2.23-7.06-5.36-9.32-9.41-2.26-4.05-3.39-8.74-3.39-14.07s1.16-9.94,3.48-14.02c2.32-4.08,5.49-7.21,9.5-9.41,4.01-2.2,8.5-3.29,13.46-3.29s9.44,1.1,13.46,3.29c4.01,2.2,7.18,5.33,9.5,9.41,2.32,4.08,3.48,8.75,3.48,14.02s-1.19,9.94-3.58,14.02c-2.38,4.08-5.63,7.23-9.74,9.46-4.11,2.23-8.64,3.34-13.6,3.34s-9.32-1.11-13.27-3.34ZM120.22,504.48c2.41-1.32,4.38-3.29,5.88-5.93,1.51-2.63,2.26-5.83,2.26-9.6s-.72-6.95-2.16-9.55c-1.44-2.6-3.36-4.56-5.74-5.88-2.38-1.32-4.96-1.98-7.72-1.98s-5.32.66-7.67,1.98-4.22,3.28-5.6,5.88c-1.38,2.6-2.07,5.79-2.07,9.55,0,5.58,1.43,9.9,4.28,12.94,2.85,3.04,6.45,4.56,10.77,4.56,2.76,0,5.35-.66,7.76-1.98Z"/>
    <path class="cls-3" d="M196.95,463.07v51.85h-10.73v-6.12c-1.69,2.13-3.91,3.81-6.63,5.03s-5.63,1.83-8.7,1.83c-4.08,0-7.73-.85-10.96-2.54-3.23-1.69-5.77-4.2-7.62-7.53-1.85-3.32-2.78-7.34-2.78-12.04v-30.49h10.63v28.89c0,4.64,1.16,8.2,3.48,10.68,2.32,2.48,5.49,3.72,9.5,3.72s7.2-1.24,9.55-3.72c2.35-2.48,3.53-6.04,3.53-10.68v-28.89h10.73Z"/>
    <path class="cls-3" d="M226.17,464.44c2.6-1.47,5.69-2.21,9.27-2.21v11.1h-2.73c-4.2,0-7.39,1.07-9.55,3.2-2.16,2.13-3.25,5.83-3.25,11.1v27.29h-10.73v-51.85h10.73v7.53c1.57-2.63,3.65-4.69,6.26-6.16Z"/>
    <path class="cls-3" d="M309.45,453.52c5.24,2.67,9.28,6.49,12.14,11.48,2.85,4.99,4.28,10.81,4.28,17.46s-1.43,12.42-4.28,17.31c-2.86,4.89-6.9,8.64-12.14,11.24-5.24,2.6-11.34,3.91-18.3,3.91h-21.36v-65.4h21.36c6.96,0,13.06,1.33,18.3,4ZM308.74,499.96c4.08-4.14,6.12-9.97,6.12-17.5s-2.04-13.52-6.12-17.79c-4.08-4.26-9.94-6.4-17.6-6.4h-10.63v47.9h10.63c7.65,0,13.52-2.07,17.6-6.21Z"/>
    <path class="cls-3" d="M338.05,474.93c2.16-4.01,5.11-7.13,8.85-9.36,3.73-2.23,7.86-3.34,12.37-3.34,4.08,0,7.64.8,10.68,2.4,3.04,1.6,5.47,3.59,7.29,5.98v-7.53h10.82v51.85h-10.82v-7.72c-1.82,2.45-4.3,4.49-7.43,6.12-3.14,1.63-6.71,2.45-10.73,2.45-4.46,0-8.53-1.14-12.23-3.43-3.7-2.29-6.63-5.49-8.8-9.6-2.16-4.11-3.25-8.77-3.25-13.97s1.08-9.82,3.25-13.83ZM375.03,479.63c-1.47-2.63-3.4-4.64-5.79-6.02-2.38-1.38-4.96-2.07-7.72-2.07s-5.33.67-7.72,2.02c-2.38,1.35-4.31,3.33-5.79,5.93-1.47,2.6-2.21,5.69-2.21,9.27s.74,6.71,2.21,9.41c1.47,2.7,3.42,4.75,5.83,6.16,2.41,1.41,4.97,2.12,7.67,2.12s5.33-.69,7.72-2.07c2.38-1.38,4.31-3.4,5.79-6.07,1.47-2.67,2.21-5.79,2.21-9.36s-.74-6.68-2.21-9.32Z"/>
    <path class="cls-3" d="M402.74,454.23c-1.32-1.32-1.98-2.95-1.98-4.89s.66-3.58,1.98-4.89,2.95-1.98,4.89-1.98,3.48.66,4.8,1.98,1.98,2.95,1.98,4.89-.66,3.58-1.98,4.89-2.92,1.98-4.8,1.98-3.58-.66-4.89-1.98ZM412.91,463.07v51.85h-10.73v-51.85h10.73Z"/>
    <path class="cls-3" d="M437.75,445.29v69.63h-10.73v-69.63h10.73Z"/>
    <path class="cls-3" d="M502.3,463.07l-31.81,76.22h-11.1l10.54-25.22-20.42-51h11.95l14.59,39.52,15.15-39.52h11.1Z"/>
    <path class="cls-3" d="M535.75,464.86c2.98-5.08,7.03-9.05,12.14-11.9,5.11-2.85,10.71-4.28,16.8-4.28,6.96,0,13.16,1.71,18.58,5.13,5.43,3.42,9.36,8.27,11.81,14.54h-12.89c-1.69-3.45-4.05-6.02-7.06-7.72s-6.49-2.54-10.44-2.54c-4.33,0-8.19.97-11.57,2.92-3.39,1.95-6.04,4.74-7.95,8.38-1.91,3.64-2.87,7.87-2.87,12.7s.96,9.07,2.87,12.7c1.91,3.64,4.56,6.45,7.95,8.42,3.39,1.98,7.25,2.96,11.57,2.96,3.95,0,7.43-.85,10.44-2.54,3.01-1.69,5.36-4.27,7.06-7.72h12.89c-2.45,6.27-6.38,11.1-11.81,14.49-5.43,3.39-11.62,5.08-18.58,5.08-6.15,0-11.76-1.43-16.84-4.28-5.08-2.85-9.11-6.82-12.09-11.9-2.98-5.08-4.47-10.82-4.47-17.22s1.49-12.14,4.47-17.22Z"/>
    <path class="cls-3" d="M645,464.77c3.11,1.69,5.55,4.2,7.34,7.53,1.79,3.33,2.68,7.34,2.68,12.04v30.58h-10.63v-28.98c0-4.64-1.16-8.2-3.48-10.68-2.32-2.48-5.49-3.72-9.5-3.72s-7.2,1.24-9.55,3.72c-2.35,2.48-3.53,6.04-3.53,10.68v28.98h-10.73v-69.63h10.73v23.81c1.82-2.2,4.12-3.89,6.92-5.08,2.79-1.19,5.85-1.79,9.17-1.79,3.95,0,7.48.85,10.59,2.54Z"/>
    <path class="cls-3" d="M715.81,493h-39.62c.31,4.14,1.85,7.47,4.61,9.97,2.76,2.51,6.15,3.76,10.16,3.76,5.77,0,9.85-2.41,12.23-7.25h11.57c-1.57,4.77-4.41,8.67-8.52,11.72-4.11,3.04-9.21,4.56-15.29,4.56-4.96,0-9.4-1.11-13.31-3.34-3.92-2.23-7-5.36-9.22-9.41-2.23-4.05-3.34-8.74-3.34-14.07s1.08-10.02,3.25-14.07,5.21-7.17,9.13-9.36c3.92-2.2,8.42-3.29,13.5-3.29s9.25,1.07,13.08,3.2c3.83,2.13,6.81,5.13,8.94,8.99,2.13,3.86,3.2,8.3,3.2,13.32,0,1.95-.13,3.7-.38,5.27ZM704.98,484.34c-.06-3.95-1.47-7.12-4.23-9.5-2.76-2.38-6.18-3.58-10.26-3.58-3.7,0-6.87,1.18-9.5,3.53s-4.2,5.54-4.71,9.55h28.7Z"/>
    <path class="cls-3" d="M728.27,474.88c2.16-4.05,5.16-7.17,8.99-9.36,3.83-2.2,8.22-3.29,13.17-3.29,6.27,0,11.46,1.49,15.57,4.47,4.11,2.98,6.88,7.23,8.33,12.75h-11.57c-.94-2.57-2.45-4.58-4.52-6.02-2.07-1.44-4.67-2.17-7.81-2.17-4.39,0-7.89,1.55-10.49,4.66-2.6,3.11-3.91,7.45-3.91,13.03s1.3,9.94,3.91,13.08c2.6,3.14,6.1,4.71,10.49,4.71,6.21,0,10.32-2.73,12.33-8.19h11.57c-1.51,5.27-4.33,9.46-8.47,12.56-4.14,3.1-9.28,4.66-15.43,4.66-4.96,0-9.35-1.11-13.17-3.34-3.83-2.23-6.82-5.36-8.99-9.41-2.16-4.05-3.25-8.74-3.25-14.07s1.08-10.02,3.25-14.07Z"/>
    <path class="cls-3" d="M805.57,489.04l23.9,25.88h-14.49l-19.2-22.3v22.3h-10.73v-69.63h10.73v40.46l18.82-22.68h14.87l-23.9,25.97Z"/>
    <path class="cls-3" d="M876.99,476.34v9.03h-38.67v-9.03h38.67Z"/>
    <path class="cls-3" d="M902.96,449.52v65.4h-10.73v-65.4h10.73Z"/>
    <path class="cls-3" d="M954.2,464.77c3.23,1.69,5.75,4.2,7.58,7.53,1.82,3.33,2.73,7.34,2.73,12.04v30.58h-10.63v-28.98c0-4.64-1.16-8.2-3.48-10.68-2.32-2.48-5.49-3.72-9.5-3.72s-7.2,1.24-9.55,3.72c-2.35,2.48-3.53,6.04-3.53,10.68v28.98h-10.73v-51.85h10.73v5.93c1.76-2.13,4-3.79,6.73-4.99,2.73-1.19,5.63-1.79,8.7-1.79,4.08,0,7.73.85,10.96,2.54Z"/>
    <path class="cls-3" d="M1046.56,486.88c2.45,3.07,3.67,6.56,3.67,10.44,0,3.33-.86,6.32-2.59,8.99-1.73,2.67-4.22,4.77-7.48,6.3-3.26,1.54-7.06,2.31-11.39,2.31h-26.16v-65.4h24.94c4.45,0,8.28.75,11.48,2.26,3.2,1.51,5.61,3.53,7.25,6.07,1.63,2.54,2.45,5.38,2.45,8.52,0,3.76-1,6.9-3.01,9.41-2.01,2.51-4.71,4.36-8.09,5.55,3.51.63,6.49,2.48,8.94,5.55ZM1013.34,477h13.27c3.51,0,6.26-.8,8.23-2.4s2.96-3.91,2.96-6.92-.99-5.25-2.96-6.92c-1.98-1.66-4.72-2.49-8.23-2.49h-13.27v18.73ZM1036.39,503.54c2.07-1.76,3.11-4.2,3.11-7.34s-1.1-5.74-3.29-7.62c-2.2-1.88-5.11-2.82-8.75-2.82h-14.11v20.42h14.49c3.64,0,6.49-.88,8.56-2.63Z"/>
    <path class="cls-3" d="M1108.85,463.07v51.85h-10.73v-6.12c-1.69,2.13-3.91,3.81-6.63,5.03s-5.63,1.83-8.7,1.83c-4.08,0-7.73-.85-10.96-2.54-3.23-1.69-5.77-4.2-7.62-7.53-1.85-3.32-2.78-7.34-2.78-12.04v-30.49h10.63v28.89c0,4.64,1.16,8.2,3.48,10.68,2.32,2.48,5.49,3.72,9.5,3.72s7.2-1.24,9.55-3.72c2.35-2.48,3.53-6.04,3.53-10.68v-28.89h10.73Z"/>
    <path class="cls-3" d="M1122.63,474.93c2.16-4.01,5.11-7.13,8.85-9.36,3.73-2.23,7.89-3.34,12.47-3.34,3.39,0,6.73.74,10.02,2.21,3.29,1.48,5.91,3.43,7.86,5.88v-25.03h10.82v69.63h-10.82v-7.81c-1.76,2.51-4.19,4.58-7.29,6.21-3.1,1.63-6.67,2.45-10.68,2.45-4.52,0-8.64-1.14-12.37-3.43-3.73-2.29-6.68-5.49-8.85-9.6-2.16-4.11-3.25-8.77-3.25-13.97s1.08-9.82,3.25-13.83ZM1159.61,479.63c-1.47-2.63-3.4-4.64-5.79-6.02-2.38-1.38-4.96-2.07-7.72-2.07s-5.33.67-7.72,2.02c-2.38,1.35-4.31,3.33-5.79,5.93-1.47,2.6-2.21,5.69-2.21,9.27s.74,6.71,2.21,9.41c1.47,2.7,3.42,4.75,5.83,6.16,2.41,1.41,4.97,2.12,7.67,2.12s5.33-.69,7.72-2.07c2.38-1.38,4.31-3.4,5.79-6.07,1.47-2.67,2.21-5.79,2.21-9.36s-.74-6.68-2.21-9.32Z"/>
    <path class="cls-3" d="M1186.43,474.93c2.16-4.01,5.11-7.13,8.85-9.36,3.73-2.23,7.89-3.34,12.47-3.34,3.39,0,6.73.74,10.02,2.21,3.29,1.48,5.91,3.43,7.86,5.88v-25.03h10.82v69.63h-10.82v-7.81c-1.76,2.51-4.19,4.58-7.29,6.21-3.1,1.63-6.67,2.45-10.68,2.45-4.52,0-8.64-1.14-12.37-3.43-3.73-2.29-6.68-5.49-8.85-9.6-2.16-4.11-3.25-8.77-3.25-13.97s1.08-9.82,3.25-13.83ZM1223.41,479.63c-1.47-2.63-3.4-4.64-5.79-6.02-2.38-1.38-4.96-2.07-7.72-2.07s-5.33.67-7.72,2.02c-2.38,1.35-4.31,3.33-5.79,5.93-1.47,2.6-2.21,5.69-2.21,9.27s.74,6.71,2.21,9.41c1.47,2.7,3.42,4.75,5.83,6.16,2.41,1.41,4.97,2.12,7.67,2.12s5.33-.69,7.72-2.07c2.38-1.38,4.31-3.4,5.79-6.07,1.47-2.67,2.21-5.79,2.21-9.36s-.74-6.68-2.21-9.32Z"/>
    <path class="cls-3" d="M1299.11,463.07l-31.81,76.22h-11.1l10.54-25.22-20.42-51h11.95l14.59,39.52,15.15-39.52h11.1Z"/>
  </g>
</svg>